<svg xmlns="http://www.w3.org/2000/svg" xmlns:xlink="http://www.w3.org/1999/xlink" xmlns:lucid="lucid" width="2742" height="1663"><g transform="translate(820.5 -18.5)" lucid:page-tab-id="0_0"><path d="M-1000 0h3000v2000h-3000z" fill="#fff"/><path d="M-600 26a6 6 0 0 1 6-6h2508a6 6 0 0 1 6 6v1648a6 6 0 0 1-6 6H-594a6 6 0 0 1-6-6z" fill="#fff" fill-opacity="0"/><path d="M-576.1 20h11.96m11.94 0h11.94m11.95 0h11.93m11.94 0h11.94m11.96 0h11.94m11.94 0h11.95m11.93 0h11.94m11.94 0h11.96m11.94 0h11.94m11.95 0h11.93m11.94 0h11.94m11.96 0h11.94m11.94 0h11.95m11.93 0h11.94m11.94 0h11.96m11.94 0h11.94m11.95 0h11.93m11.94 0h11.94m11.96 0h11.94m11.94 0h11.95m11.93 0h11.94m11.94 0h11.96m11.94 0h11.94m11.95 0h11.93m11.94 0H9.1m11.96 0H33m11.94 0H56.9m11.93 0h11.94m11.94 0h11.96m11.94 0h11.94m11.95 0h11.93m11.94 0h11.94m11.96 0h11.94m11.94 0h11.95m11.93 0h11.94m11.94 0h11.96m11.94 0h11.94m11.95 0h11.93m11.94 0h11.94m11.96 0h11.94m11.94 0h11.95m11.93 0h11.94m11.94 0h11.96M451 20h11.94m11.95 0h11.93m11.94 0h11.94m11.96 0h11.94m11.94 0h11.95m11.93 0h11.94m11.94 0h11.96m11.94 0h11.94m11.95 0h11.93m11.94 0h11.94m11.96 0h11.94m11.94 0h11.95m11.93 0h11.94m11.94 0h11.96m11.94 0h11.94m11.95 0h11.93m11.94 0h11.94m11.96 0H869m11.94 0h11.95m11.93 0h11.94m11.94 0h11.96m11.94 0h11.94m11.95 0h11.93m11.94 0h11.94m11.96 0h11.94m11.94 0h11.95m11.93 0h11.94m11.94 0h11.96m11.94 0h11.94m11.95 0h11.93m11.94 0h11.94m11.96 0h11.94m11.94 0h11.95m11.93 0h11.94m11.94 0h11.96m11.94 0h11.94m11.95 0h11.93m11.94 0h11.94m11.96 0h11.94m11.94 0h11.95m11.93 0h11.94m11.94 0h11.96m11.94 0h11.94m11.95 0h11.93m11.94 0h11.94m11.96 0h11.94m11.94 0h11.95m11.93 0h11.94m11.94 0h11.96m11.94 0h11.94m11.95 0h11.93m11.94 0h11.94m11.96 0H1705m11.94 0h11.95m11.93 0h11.94m11.94 0h11.96m11.94 0h11.94m11.95 0h11.93m11.94 0h11.94m11.96 0h11.94m11.94 0h11.95m11.93 0h5.97a6 6 0 0 1 6 6v5.97m0 11.94v11.95m0 11.95v11.94m0 11.94v11.94m0 11.94v11.95m0 11.95v11.94m0 11.93v11.94m0 11.95v11.94m0 11.94v11.94m0 11.95v11.93m0 11.94v11.94m0 11.95v11.95m0 11.94v11.94m0 11.94v11.94m0 11.95v11.95m0 11.94v11.93m0 11.94v11.95m0 11.94V438m0 11.94v11.94m0 11.95v11.94m0 11.94v11.95m0 11.94v11.94m0 11.94v11.94m0 11.94v11.94m0 11.95v11.94m0 11.93v11.94m0 11.94v11.96m0 11.94v11.94m0 11.94v11.95m0 11.94v11.94m0 11.95v11.94m0 11.93v11.95m0 11.94v11.94m0 11.94v11.94m0 11.95v11.93m0 11.94v11.94m0 11.96v11.94m0 11.94v11.94m0 11.94v11.95m0 11.94v11.95m0 11.94v11.93m0 11.94v11.95m0 11.94v11.94m0 11.94V1059m0 11.93v11.94m0 11.94v11.95m0 11.95v11.94m0 11.94v11.94m0 11.94v11.95m0 11.95v11.94m0 11.93v11.94m0 11.95v11.94m0 11.94v11.94m0 11.94v11.95m0 11.94v11.94m0 11.95v11.94m0 11.94v11.94m0 11.94v11.94m0 11.94v11.95m0 11.94v11.93m0 11.94V1465m0 11.96v11.94m0 11.94v11.94m0 11.94v11.95m0 11.94v11.95m0 11.94v11.93m0 11.95v11.94m0 11.94v11.94m0 11.94v11.95m0 11.93v5.97a6 6 0 0 1-6 6h-5.97m-11.94 0h-11.96m-11.94 0h-11.94m-11.95 0h-11.93m-11.94 0h-11.94m-11.96 0h-11.94m-11.94 0h-11.95m-11.93 0h-11.94m-11.94 0h-11.96m-11.94 0h-11.94m-11.95 0h-11.93m-11.94 0h-11.94m-11.96 0h-11.94m-11.94 0h-11.95m-11.93 0h-11.94m-11.94 0h-11.96m-11.94 0h-11.94m-11.95 0h-11.93m-11.94 0h-11.94m-11.96 0h-11.94m-11.94 0h-11.95m-11.93 0h-11.94m-11.94 0h-11.96m-11.94 0h-11.94m-11.95 0h-11.93m-11.94 0h-11.94m-11.96 0H1287m-11.94 0h-11.95m-11.93 0h-11.94m-11.94 0h-11.96m-11.94 0h-11.94m-11.95 0h-11.93m-11.94 0h-11.94m-11.96 0h-11.94m-11.94 0h-11.95m-11.93 0h-11.94m-11.94 0h-11.96m-11.94 0h-11.94m-11.95 0h-11.93m-11.94 0H976.5m-11.96 0H952.6m-11.94 0H928.7m-11.93 0h-11.94m-11.94 0h-11.96m-11.94 0h-11.94m-11.95 0h-11.93m-11.94 0H809.3m-11.96 0H785.4m-11.94 0H761.5m-11.93 0h-11.94m-11.94 0h-11.96m-11.94 0h-11.94m-11.95 0h-11.93m-11.94 0H642.1m-11.96 0H618.2m-11.94 0H594.3m-11.93 0h-11.94m-11.94 0h-11.96m-11.94 0h-11.94m-11.95 0h-11.93m-11.94 0H474.9m-11.96 0H451m-11.94 0H427.1m-11.93 0h-11.94m-11.94 0h-11.96m-11.94 0h-11.94m-11.95 0h-11.93m-11.94 0H307.7m-11.96 0H283.8m-11.94 0H259.9m-11.93 0h-11.94m-11.94 0h-11.96m-11.94 0h-11.94m-11.95 0h-11.93m-11.94 0H140.5m-11.96 0H116.6m-11.94 0H92.7m-11.93 0H68.83m-11.94 0H44.93M33 1680H21.06m-11.95 0H-2.82m-11.94 0H-26.7m-11.96 0H-50.6m-11.94 0H-74.5m-11.93 0h-11.94m-11.94 0h-11.96m-11.94 0h-11.94m-11.95 0h-11.93m-11.94 0h-11.94m-11.96 0h-11.94m-11.94 0h-11.95m-11.93 0h-11.94m-11.94 0h-11.96m-11.94 0h-11.94m-11.95 0h-11.93m-11.94 0h-11.94m-11.96 0H-385m-11.94 0h-11.95m-11.93 0h-11.94m-11.94 0h-11.96m-11.94 0h-11.94m-11.95 0h-11.93m-11.94 0h-11.94m-11.96 0h-11.94m-11.94 0h-11.95m-11.93 0H-594a6 6 0 0 1-6-6v-5.97m0-11.94v-11.95m0-11.95v-11.94m0-11.94v-11.94m0-11.95v-11.94m0-11.95v-11.94m0-11.93v-11.95m0-11.94v-11.94m0-11.94v-11.94m0-11.95v-11.93m0-11.94v-11.94m0-11.95v-11.95m0-11.94v-11.94m0-11.94v-11.94m0-11.95v-11.95m0-11.94v-11.93m0-11.94v-11.95m0-11.94V1262m0-11.94v-11.94m0-11.95v-11.94m0-11.94v-11.95m0-11.94v-11.94m0-11.94v-11.94m0-11.94v-11.94m0-11.95v-11.94m0-11.93v-11.94m0-11.94v-11.96m0-11.94v-11.94m0-11.94v-11.95m0-11.94V975.4m0-11.95V951.5m0-11.93V927.6m0-11.94v-11.94m0-11.94v-11.94m0-11.95v-11.93m0-11.94V832.1m0-11.96V808.2m0-11.94v-11.94m0-11.94v-11.95m0-11.94v-11.95m0-11.94v-11.93m0-11.94v-11.95m0-11.94V664.9m0-11.94V641m0-11.93v-11.94m0-11.94v-11.95m0-11.95v-11.94m0-11.94v-11.94m0-11.94V521.6m0-11.95V497.7m0-11.93v-11.94m0-11.95v-11.94m0-11.94v-11.94m0-11.94v-11.95m0-11.94V378.3m0-11.95V354.4m0-11.94v-11.94m0-11.94v-11.94m0-11.94v-11.95m0-11.94v-11.93m0-11.94V235m0-11.96V211.1m0-11.94v-11.94m0-11.94v-11.95m0-11.94v-11.95m0-11.94v-11.94m0-11.94V91.68m0-11.94V67.8m0-11.95V43.91m0-11.93V26a6 6 0 0 1 6-6h5.97" stroke="#00a4a6" stroke-width="3" fill="none"/><path d="M-600 20h56v56h-56V20z" stroke="#fff" stroke-opacity="0" fill="#00a4a6"/><path d="M-556.16 49.36l-5.96-7.36 5.96-7.4h-26.17V32.5c.98-.32 1.62-1.16 1.62-2.2-.1-1.15-1.03-2.02-2.17-2.14-1.3-.08-2.44.87-2.53 2.15 0 1.03.63 1.87 1.58 2.2V66.4h-4.02V68h9.44v-1.6h-3.93V49.37zm-26.96-19.75c.4-.03.76.33.76.73 0 .44-.32.76-.73.76-.4.02-.75-.33-.75-.73v-.04c0-.4.32-.72.73-.72zm23.6 6.62l-4.65 5.78 4.65 5.73h-22.8v-11.5z" stroke="#fff" stroke-opacity="0" fill="#fff"/><use xlink:href="#a" transform="matrix(1,0,0,1,-529,40) translate(0 21.52777777777778)"/><path d="M-551.1 106a6 6 0 0 1 6-6H1594a6 6 0 0 1 6 6v1528a6 6 0 0 1-6 6H-545.1a6 6 0 0 1-6-6z" stroke="#8c4fff" stroke-width="3" fill="#fff" fill-opacity="0"/><path d="M-551.1 100h56v56h-56v-56z" stroke="#000" stroke-opacity="0" fill="#8c4fff"/><path d="M-507.75 129.45l-4.1-1.77v14.68c3.56-.48 4.1-4.16 4.1-4.3v-8.6zm-5.52 12.95v-14.72l-4.24 1.77v8.68c0 .07.62 3.86 4.23 4.27zm.43-16.45c.2-.07.4-.07.55.04l5.53 2.34c.28.1.44.37.44.63v9.16c-.24 2.02-1.88 5.7-6.35 5.7-4.32 0-5.96-3.68-6.24-5.6v-9.26c0-.26.2-.52.43-.63l5.66-2.4zm7.92.92l-7.65-3.38-7.76 3.26v9.97c0 .08-.04 4 2.35 6.48 1.26 1.33 3.06 2 5.3 2 2.27 0 4.03-.67 5.37-2 2.42-2.46 2.38-6.43 2.38-6.47v-9.86zm-1.4 17.3c-1.58 1.6-3.7 2.42-6.36 2.42-2.63 0-4.75-.82-6.32-2.44-2.82-2.87-2.7-7.28-2.7-7.47v-10.42c0-.3.16-.55.43-.62l8.43-3.57c.2-.08.4-.08.55 0l8.36 3.67c.27.1.43.37.43.62v10.33c0 .2.03 4.56-2.83 7.43zm-29.4-10.23h11.2v1.4h-11.2c-3.93 0-6.76-2.84-7-7.03v-.5c0-3.54 1.85-5.93 5.34-7 0-.3-.04-.66-.04-.88 0-4.1 2.24-7.66 5.65-9.05 4.62-1.88 9.84-1.25 12.74 1.54 1.05 1.04 1.88 2.18 2.46 3.5.87-.62 1.97-.9 3.3-.84 2.5.1 4.43 2.4 4.82 5.6 2.08.18 3.5 1.25 4.2 3.23l-1.3.47c-.6-1.62-1.7-2.36-3.57-2.36-.35.02-.66-.24-.66-.65-.2-3.23-2-4.82-3.57-4.9-1.33-.06-2.3.3-2.9 1.1-.16.2-.4.3-.67.27-.23-.04-.47-.22-.55-.44-.58-1.55-1.4-2.83-2.54-3.94-2.52-2.43-7.15-2.94-11.26-1.25-2.87 1.17-4.75 4.2-4.75 7.72 0 .37.03.95.07 1.32.04.37-.16.7-.5.78-3.22.8-4.87 2.72-4.87 5.77v.4c.2 3.5 2.4 5.74 5.57 5.74z" stroke="#000" stroke-opacity="0" fill="#fff"/><use xlink:href="#b" transform="matrix(1,0,0,1,-480.11111111111086,120.00000000000011) translate(0 21.52777777777778)"/><path d="M-404.44 186a6 6 0 0 1 6-6H1514a6 6 0 0 1 6 6v608a6 6 0 0 1-6 6H-398.44a6 6 0 0 1-6-6z" fill="#fff" fill-opacity="0"/><path d="M-380.5 180h11.94m11.95 0h11.94m11.96 0h11.95m11.95 0h11.95m11.96 0h11.96m11.95 0h11.97m11.95 0h11.95m11.95 0h11.96m11.95 0h11.95m11.95 0h11.96m11.94 0h11.95m11.95 0h11.95m11.95 0h11.95m11.96 0h11.95m11.96 0h11.96m11.95 0h11.95m11.95 0h11.96m11.95 0h11.95m11.95 0h11.96m11.95 0h11.94m11.96 0h11.95m11.95 0h11.95m11.96 0h11.96m11.95 0h11.96m11.96 0h11.95m11.95 0h11.96m11.95 0h11.95m11.96 0h11.95m11.94 0h11.95m11.95 0h11.95m11.95 0h11.95m11.96 0h11.95m11.96 0h11.96m11.95 0h11.95m11.95 0h11.96m11.95 0h11.95m11.95 0h11.96m11.95 0h11.94m11.96 0h11.95m11.95 0h11.95m11.96 0h11.96m11.95 0h11.97m11.95 0h11.95m11.95 0h11.96m11.95 0h11.95m11.96 0h11.95m11.94 0h11.95m11.95 0H755m11.95 0h11.95m11.96 0h11.95m11.96 0h11.96m11.95 0h11.95m11.95 0h11.96m11.95 0h11.95m11.96 0h11.94m11.95 0h11.94m11.96 0h11.95m11.95 0h11.95m11.96 0h11.96m11.95 0h11.96m11.96 0h11.95m11.95 0h11.96m11.95 0h11.95m11.96 0h11.95m11.94 0h11.95m11.95 0h11.95m11.95 0h11.95m11.96 0h11.95m11.96 0h11.96m11.95 0h11.95m11.95 0h11.96m11.95 0h11.95m11.95 0h11.96m11.95 0h11.94m11.96 0h11.95m11.95 0h11.95m11.96 0h11.96m11.95 0h11.96m11.96 0h11.95m11.95 0h5.98a6 6 0 0 1 6 6v6.08m0 12.16v12.16m0 12.16v12.16m0 12.16v12.16m0 12.16v12.16m0 12.16v12.16m0 12.16V338m0 12.16v12.16m0 12.16v12.16m0 12.16v12.16m0 12.16v12.16m0 12.16v12.16m0 12.16v12.16m0 12.16v12.16m0 12.16v12.16m0 12.16v12.16m0 12.16v12.16m0 12.16v12.16m0 12.16v12.16m0 12.16v12.16m0 12.16v12.16m0 12.16v12.16m0 12.16v12.16m0 12.16v12.16m0 12.16v12.16m0 12.16V794a6 6 0 0 1-6 6h-5.98m-11.95 0h-11.95m-11.95 0h-11.96m-11.94 0h-11.95m-11.95 0h-11.95m-11.95 0h-11.95m-11.96 0h-11.95m-11.96 0h-11.96m-11.95 0h-11.95m-11.95 0h-11.96m-11.95 0h-11.95m-11.95 0h-11.96m-11.95 0h-11.94m-11.96 0h-11.95m-11.95 0h-11.95m-11.96 0h-11.96m-11.95 0h-11.96m-11.96 0h-11.95m-11.95 0h-11.96m-11.95 0h-11.95m-11.95 0h-11.96m-11.94 0H1006m-11.95 0H982.1m-11.95 0H958.2m-11.96 0H934.3m-11.96 0h-11.96m-11.95 0h-11.95m-11.95 0h-11.96m-11.95 0h-11.95m-11.95 0h-11.96m-11.95 0h-11.94m-11.96 0h-11.95M755 800h-11.95m-11.96 0h-11.96m-11.95 0h-11.97m-11.95 0h-11.95m-11.95 0h-11.96m-11.95 0h-11.95m-11.95 0H599.6m-11.94 0H575.7m-11.95 0H551.8m-11.95 0H527.9m-11.96 0H504m-11.96 0h-11.96m-11.95 0h-11.95m-11.95 0h-11.96m-11.95 0h-11.95m-11.95 0h-11.96m-11.95 0h-11.94m-11.96 0h-11.95m-11.95 0h-11.95m-11.96 0h-11.96m-11.95 0h-11.96m-11.96 0h-11.95m-11.95 0h-11.96m-11.95 0h-11.95m-11.96 0H169.3m-11.94 0H145.4m-11.95 0H121.5m-11.95 0H97.6m-11.96 0H73.7m-11.96 0H49.78m-11.95 0H25.88m-11.95 0H1.97m-11.95 0h-11.95m-11.95 0h-11.96m-11.95 0h-11.94m-11.96 0h-11.95m-11.95 0h-11.95m-11.96 0h-11.96m-11.95 0h-11.97m-11.95 0h-11.95m-11.95 0h-11.96m-11.95 0h-11.95m-11.95 0H-261m-11.94 0h-11.95m-11.95 0h-11.95m-11.95 0h-11.95m-11.96 0h-11.95m-11.96 0h-11.95m-11.97 0h-5.97a6 6 0 0 1-6-6v-6.08m0-12.16V763.6m0-12.16v-12.16m0-12.16v-12.16m0-12.16v-12.16m0-12.16v-12.16m0-12.16V642m0-12.16v-12.16m0-12.16v-12.16m0-12.16v-12.16m0-12.16v-12.16m0-12.16V520.4m0-12.16v-12.16m0-12.16v-12.16m0-12.16v-12.16m0-12.16v-12.16m0-12.16V398.8m0-12.16v-12.16m0-12.16v-12.16m0-12.16v-12.16m0-12.16v-12.16m0-12.16V277.2m0-12.16v-12.16m0-12.16v-12.16m0-12.16v-12.16m0-12.16V186a6 6 0 0 1 6-6h5.97" stroke="#00a4a6" stroke-width="3" fill="none"/><use xlink:href="#c" transform="matrix(1,0,0,1,-404.44444444444446,200.00000000000006) translate(892.7734375 21.52777777777778)"/><path d="M500 226a6 6 0 0 1 6-6h928a6 6 0 0 1 6 6v528a6 6 0 0 1-6 6H506a6 6 0 0 1-6-6z" stroke="#00a4a6" stroke-width="3" fill="#fff" fill-opacity="0"/><path d="M500 220h56v56h-56v-56z" stroke="#fff" stroke-opacity="0" fill="#00a4a6"/><path d="M543.38 242.18c-.15-.17-.34-.25-.56-.25h-5.15v-5.58c-.03-2.54-.96-4.7-2.84-6.4-1.9-1.83-4.15-2.75-6.77-2.75-2.65 0-4.9.83-6.8 2.62-1.9 1.7-2.87 3.87-2.9 6.4v5.66h-5.15c-.24 0-.43.1-.58.25-.16.17-.22.34-.22.6V268c0 .43.34.8.8.8h29.6c.46 0 .8-.37.8-.8v-25.28c0-.2-.06-.38-.22-.54zm-23.46-5.9c.03-2.13.8-3.88 2.37-5.3 1.6-1.5 3.52-2.2 5.73-2.2 2.22 0 4.12.75 5.7 2.25 1.54 1.4 2.32 3.2 2.32 5.32v5.58H519.9zm22.1 30.94h-28.03v-23.7h28z" stroke="#fff" stroke-opacity="0" fill="#fff"/><path d="M527.2 257.3v6.25h1.6v-6.23c2.13-.4 3.62-2.2 3.63-4.35 0-2.43-1.97-4.4-4.4-4.43-2.2-.03-4.06 1.5-4.44 3.68-.42 2.4 1.2 4.68 3.6 5.1zm.82-7.15c.78 0 1.44.27 2 .82.54.56.82 1.22.8 2 .03 1.55-1.2 2.8-2.74 2.82h-.06c-1.56.1-2.92-1.06-3.04-2.62-.12-1.56 1.05-2.93 2.6-3.03.16-.02.28-.02.44 0z" stroke="#fff" stroke-opacity="0" fill="#fff"/><use xlink:href="#d" transform="matrix(1,0,0,1,571,240.00000000000006) translate(0 21.52777777777778)"/><use xlink:href="#e" transform="matrix(1,0,0,1,571,240.00000000000006) translate(79.40538194444444 21.52777777777778)"/><path d="M-364.44 226a6 6 0 0 1 6-6h556.88a6 6 0 0 1 6 6v528a6 6 0 0 1-6 6h-556.88a6 6 0 0 1-6-6z" stroke="#7aa116" stroke-width="3" fill="#fff" fill-opacity="0"/><path d="M-364.44 220h56v56h-56v-56z" stroke="#fff" stroke-opacity="0" fill="#7aa116"/><path d="M-321.06 242.18c-.16-.17-.35-.25-.56-.25h-5.15v-5.58c-.03-2.54-.97-4.7-2.84-6.4-1.9-1.83-4.16-2.75-6.78-2.75-2.65 0-4.9.83-6.8 2.62-1.9 1.7-2.87 3.87-2.9 6.4v5.66h-5.15c-.25 0-.44.1-.6.25-.15.17-.2.34-.2.6V268c0 .43.33.8.8.8h29.58c.46 0 .8-.37.8-.8v-25.28c0-.2-.06-.38-.2-.54zm-23.46-5.9c.03-2.13.8-3.88 2.37-5.3 1.62-1.5 3.52-2.2 5.74-2.2 2.2 0 4.1.75 5.7 2.25 1.52 1.4 2.3 3.2 2.3 5.32v5.58h-16.16zm22.08 30.94h-28v-23.7h28z" stroke="#fff" stroke-opacity="0" fill="#fff"/><path d="M-337.25 257.3v6.25h1.6v-6.23c2.13-.4 3.63-2.2 3.64-4.35 0-2.43-2-4.4-4.43-4.43-2.2-.03-4.05 1.5-4.42 3.68-.4 2.4 1.2 4.68 3.6 5.1zm.82-7.15c.8 0 1.44.27 2 .82.55.56.82 1.22.8 2 .03 1.55-1.2 2.8-2.74 2.82h-.06c-1.56.1-2.92-1.06-3.03-2.62-.12-1.56 1.05-2.93 2.6-3.03.16-.02.28-.02.43 0z" stroke="#fff" stroke-opacity="0" fill="#fff"/><use xlink:href="#f" transform="matrix(1,0,0,1,-293.44444444444446,240.00000000000006) translate(0 21.52777777777778)"/><use xlink:href="#e" transform="matrix(1,0,0,1,-293.44444444444446,240.00000000000006) translate(70.64887152777777 21.52777777777778)"/><path d="M500 1139.33a6 6 0 0 1 6-6h928a6 6 0 0 1 6 6V1554a6 6 0 0 1-6 6H506a6 6 0 0 1-6-6z" stroke="#00a4a6" stroke-width="3" fill="#fff" fill-opacity="0"/><path d="M500 1133.33h56v56h-56v-56z" stroke="#fff" stroke-opacity="0" fill="#00a4a6"/><path d="M543.38 1155.5c-.15-.16-.34-.24-.56-.24h-5.15v-5.58c-.03-2.53-.96-4.7-2.84-6.4-1.9-1.83-4.15-2.75-6.77-2.75-2.65 0-4.9.84-6.8 2.62-1.9 1.7-2.87 3.87-2.9 6.4v5.67h-5.15c-.24 0-.43.08-.58.25-.16.16-.22.33-.22.58v25.3c0 .4.34.78.8.78h29.6c.46 0 .8-.37.8-.8v-25.28c0-.2-.06-.37-.22-.54zm-23.46-5.9c.03-2.12.8-3.87 2.37-5.28 1.6-1.5 3.52-2.2 5.73-2.2 2.22 0 4.12.74 5.7 2.24 1.54 1.42 2.32 3.2 2.32 5.33v5.56H519.9zm22.1 30.95h-28.03v-23.7h28z" stroke="#fff" stroke-opacity="0" fill="#fff"/><path d="M527.2 1170.64v6.24h1.6v-6.22c2.13-.4 3.62-2.2 3.63-4.36 0-2.43-1.97-4.4-4.4-4.42-2.2-.03-4.06 1.5-4.44 3.67-.42 2.4 1.2 4.7 3.6 5.1zm.82-7.16c.78 0 1.44.27 2 .83.54.56.82 1.22.8 2 .03 1.55-1.2 2.8-2.74 2.83h-.06c-1.56.12-2.92-1.06-3.04-2.62-.12-1.55 1.05-2.9 2.6-3.02h.44z" stroke="#fff" stroke-opacity="0" fill="#fff"/><use xlink:href="#d" transform="matrix(1,0,0,1,571.0000000000001,1153.333333333333) translate(0 21.52777777777778)"/><use xlink:href="#e" transform="matrix(1,0,0,1,571.0000000000001,1153.333333333333) translate(79.40538194444444 21.52777777777778)"/><path d="M-404.44 1066a6 6 0 0 1 6-6H1514a6 6 0 0 1 6 6v528a6 6 0 0 1-6 6H-398.44a6 6 0 0 1-6-6z" fill="#fff" fill-opacity="0"/><path d="M-380.5 1060h11.94m11.95 0h11.94m11.96 0h11.95m11.95 0h11.95m11.96 0h11.96m11.95 0h11.97m11.95 0h11.95m11.95 0h11.96m11.95 0h11.95m11.95 0h11.96m11.94 0h11.95m11.95 0h11.95m11.95 0h11.95m11.96 0h11.95m11.96 0h11.96m11.95 0h11.95m11.95 0h11.96m11.95 0h11.95m11.95 0h11.96m11.95 0h11.94m11.96 0h11.95m11.95 0h11.95m11.96 0h11.96m11.95 0h11.96m11.96 0h11.95m11.95 0h11.96m11.95 0h11.95m11.96 0h11.95m11.94 0h11.95m11.95 0h11.95m11.95 0h11.95m11.96 0h11.95m11.96 0h11.96m11.95 0h11.95m11.95 0h11.96m11.95 0h11.95m11.95 0h11.96m11.95 0h11.94m11.96 0h11.95m11.95 0h11.95m11.96 0h11.96m11.95 0h11.97m11.95 0h11.95m11.95 0h11.96m11.95 0h11.95m11.96 0h11.95m11.94 0h11.95m11.95 0H755m11.95 0h11.95m11.96 0h11.95m11.96 0h11.96m11.95 0h11.95m11.95 0h11.96m11.95 0h11.95m11.96 0h11.94m11.95 0h11.94m11.96 0h11.95m11.95 0h11.95m11.96 0h11.96m11.95 0h11.96m11.96 0h11.95m11.95 0h11.96m11.95 0h11.95m11.96 0h11.95m11.94 0h11.95m11.95 0h11.95m11.95 0h11.95m11.96 0h11.95m11.96 0h11.96m11.95 0h11.95m11.95 0h11.96m11.95 0h11.95m11.95 0h11.96m11.95 0h11.94m11.96 0h11.95m11.95 0h11.95m11.96 0h11.96m11.95 0h11.96m11.96 0h11.95m11.95 0h5.98a6 6 0 0 1 6 6v6m0 12v12m0 12v12m0 12v12m0 12v12m0 12v12m0 12v12m0 12v12m0 12v12m0 12v12m0 12v12m0 12v12m0 12v12m0 12v12m0 12v12m0 12v12m0 12v12m0 12v12m0 12v12m0 12v12m0 12v12m0 12v12m0 12v6a6 6 0 0 1-6 6h-5.98m-11.95 0h-11.95m-11.95 0h-11.96m-11.94 0h-11.95m-11.95 0h-11.95m-11.95 0h-11.95m-11.96 0h-11.95m-11.96 0h-11.96m-11.95 0h-11.95m-11.95 0h-11.96m-11.95 0h-11.95m-11.95 0h-11.96m-11.95 0h-11.94m-11.96 0h-11.95m-11.95 0h-11.95m-11.96 0h-11.96m-11.95 0h-11.96m-11.96 0h-11.95m-11.95 0h-11.96m-11.95 0h-11.95m-11.95 0h-11.96m-11.94 0H1006m-11.95 0H982.1m-11.95 0H958.2m-11.96 0H934.3m-11.96 0h-11.96m-11.95 0h-11.95m-11.95 0h-11.96m-11.95 0h-11.95m-11.95 0h-11.96m-11.95 0h-11.94m-11.96 0h-11.95m-11.95 0h-11.95m-11.96 0h-11.96m-11.95 0h-11.97m-11.95 0h-11.95m-11.95 0h-11.96m-11.95 0h-11.95m-11.95 0H599.6m-11.94 0H575.7m-11.95 0H551.8m-11.95 0H527.9m-11.96 0H504m-11.96 0h-11.96m-11.95 0h-11.95m-11.95 0h-11.96m-11.95 0h-11.95m-11.95 0h-11.96m-11.95 0h-11.94m-11.96 0h-11.95m-11.95 0h-11.95m-11.96 0h-11.96m-11.95 0h-11.96m-11.96 0h-11.95m-11.95 0h-11.96m-11.95 0h-11.95m-11.96 0H169.3m-11.94 0H145.4m-11.95 0H121.5m-11.95 0H97.6m-11.96 0H73.7m-11.96 0H49.78m-11.95 0H25.88m-11.95 0H1.97m-11.95 0h-11.95m-11.95 0h-11.96m-11.95 0h-11.94m-11.96 0h-11.95m-11.95 0h-11.95m-11.96 0h-11.96m-11.95 0h-11.97m-11.95 0h-11.95m-11.95 0h-11.96m-11.95 0h-11.95m-11.95 0H-261m-11.94 0h-11.95m-11.95 0h-11.95m-11.95 0h-11.95m-11.96 0h-11.95m-11.96 0h-11.95m-11.97 0h-5.97a6 6 0 0 1-6-6v-6m0-12v-12m0-12v-12m0-12v-12m0-12v-12m0-12v-12m0-12v-12m0-12v-12m0-12v-12m0-12v-12m0-12v-12m0-12v-12m0-12v-12m0-12v-12m0-12v-12m0-12v-12m0-12v-12m0-12v-12m0-12v-12m0-12v-12m0-12v-12m0-12v-12m0-12v-6a6 6 0 0 1 6-6h5.97" stroke="#00a4a6" stroke-width="3" fill="none"/><use xlink:href="#g" transform="matrix(1,0,0,1,-404.44444444444446,1080) translate(892.2092013888889 21.52777777777778)"/><path d="M573.33 330.44a6 6 0 0 1 6-6h232.45a6 6 0 0 1 6 6V1514a6 6 0 0 1-6 6H579.33a6 6 0 0 1-6-6z" fill="#fff" fill-opacity="0"/><path d="M596.77 324.44h11.62m11.6 0h11.63m11.63 0h11.62m11.62 0h11.62m11.62 0h11.63m11.62 0h11.6m11.63 0h11.63m11.62 0h11.62m11.62 0h11.62m11.63 0h5.8a6 6 0 0 1 6 6v6.04m0 12.08v12.08m0 12.07v12.1m0 12.07v12.08m0 12.07v12.08m0 12.08v12.07m0 12.08v12.08m0 12.1v12.06m0 12.08v12.08m0 12.07v12.07m0 12.08v12.07m0 12.08v12.08m0 12.08v12.07m0 12.08v12.1m0 12.07v12.07m0 12.08v12.08m0 12.07v12.08m0 12.08v12.07m0 12.08v12.08m0 12.08v12.07m0 12.1v12.07m0 12.07v12.08m0 12.08v12.08m0 12.07v12.08m0 12.08v12.08m0 12.08v12.08m0 12.07v12.1m0 12.07v12.08m0 12.07v12.08m0 12.08v12.07m0 12.08v12.08m0 12.1v12.06m0 12.08v12.08m0 12.07v12.07m0 12.08v12.08m0 12.07v12.08m0 12.08v12.07m0 12.08v12.1m0 12.07v12.07m0 12.08v12.08m0 12.07v12.08m0 12.08v12.08m0 12.08v12.08m0 12.08v12.07m0 12.1v12.07m0 12.08v12.07m0 12.08v12.08m0 12.07v12.08m0 12.08v12.08m0 12.08v6.04a6 6 0 0 1-6 6h-5.8m-11.63 0h-11.62m-11.62 0h-11.62m-11.62 0h-11.63m-11.62 0H713m-11.63 0h-11.63m-11.62 0H666.5m-11.62 0h-11.62m-11.63 0H620m-11.6 0h-11.63m-11.63 0h-5.8a6 6 0 0 1-6-6v-6.04m0-12.08v-12.07m0-12.07v-12.08m0-12.07v-12.08m0-12.08v-12.08m0-12.07v-12.08m0-12.1v-12.06m0-12.08v-12.08m0-12.08v-12.07m0-12.08v-12.08m0-12.07v-12.08m0-12.08v-12.07m0-12.08v-12.1m0-12.07v-12.07m0-12.08v-12.08m0-12.07v-12.08m0-12.08v-12.08m0-12.08v-12.08m0-12.08v-12.07m0-12.1v-12.07m0-12.08v-12.07m0-12.08v-12.08m0-12.07v-12.08m0-12.08v-12.1m0-12.06v-12.08m0-12.08V904.1m0-12.07v-12.08m0-12.08V855.8m0-12.08v-12.08m0-12.07V807.5m0-12.1v-12.06m0-12.08v-12.08m0-12.08v-12.07m0-12.08v-12.08m0-12.07v-12.08m0-12.08v-12.07m0-12.08v-12.1m0-12.07v-12.07m0-12.08V590.1m0-12.08v-12.07m0-12.08V541.8m0-12.08v-12.08m0-12.08V493.5m0-12.1v-12.07m0-12.08v-12.07m0-12.08v-12.08m0-12.07v-12.08m0-12.08v-12.1m0-12.06v-12.08m0-12.08v-6.04a6 6 0 0 1 6-6h5.8" stroke="#ed7100" stroke-width="3" fill="none"/><path d="M667.56 324.44h56v56h-56v-56z" stroke="#fff" stroke-opacity="0" fill="#ed7100"/><path d="M687.23 348.17l-1.13 1.14 2.33 2.34h-12.87v1.6h12.87l-2.33 2.34 1.13 1.14 4.28-4.28-4.27-4.27zM715.56 351.64h-12.88l2.33-2.33-1.12-1.13-4.28 4.27 4.28 4.28 1.13-1.14-2.32-2.33h12.88v-1.6zM694.75 335.07v12.88h1.6v-12.88l2.34 2.33 1.13-1.13-4.27-4.27-4.28 4.27 1.14 1.13 2.33-2.32zM696.36 369.8v-12.86h-1.6v12.87l-2.34-2.3-1.14 1.12 4.28 4.27 4.27-4.28-1.14-1.13-2.34 2.3z" stroke="#fff" stroke-opacity="0" fill="#fff"/><use xlink:href="#h" transform="matrix(1,0,0,1,573.3333333333335,395.44444444444457) translate(22.391493055555557 21.52777777777778)"/><use xlink:href="#i" transform="matrix(1,0,0,1,573.3333333333335,395.44444444444457) translate(77.49131944444444 21.52777777777778)"/><use xlink:href="#j" transform="matrix(1,0,0,1,573.3333333333335,395.44444444444457) translate(160.91145833333331 21.52777777777778)"/><path d="M-538.28 500.48H-541v-32.24c0-.72-.48-1.36-1.12-1.68l-.16-.08c-3.68-1.6-7.44-3.36-12.88-3.36-5.68 0-9.84 1.84-14 3.92-.64.32-1.04.96-1.04 1.6v31.84h-2.64v-34.4c4.48-3.6 10.88-5.68 17.68-5.68 6.4 0 12.48 1.84 16.88 5.04v35.04zm-16.88-43.68c-8 0-15.6 2.56-20.72 7.04-.4.4-.56.88-.56 1.36v37.04c0 1.04.8 1.84 1.76 1.84h6.32c1.04 0 1.84-.8 1.84-1.84v-32.48c3.52-1.68 6.88-2.96 11.36-2.96 4.24 0 7.36 1.2 10.48 2.64v32.8c0 1.04.8 1.84 1.84 1.84h6.4c.96 0 1.76-.8 1.76-1.84v-37.76c0-.48-.24-1.04-.64-1.36-5.04-4.08-12.32-6.32-19.84-6.32zm-.4 59.52c-20.08 0-36.32-16.24-36.32-36.32 0-20.08 16.24-36.32 36.32-36.32 20.08 0 36.32 16.24 36.32 36.32 0 20.08-16.24 36.32-36.32 36.32zm0-76.32c-22.08 0-40 17.92-40 40s17.92 40 40 40 40-17.92 40-40-17.92-40-40-40zM-189.16 497.1v-6.5l4.1 3.3-4.1 3.2zm-.8-13c-.7-.5-1.7-.6-2.4-.2-.8.3-1.3 1.1-1.3 2v15.9c0 .9.5 1.7 1.3 2.1.3.1.6.2.9.2.6 0 1.1-.2 1.5-.5l9.9-8c.5-.4.9-1 .9-1.7s-.4-1.4-.9-1.8l-9.9-8zm54.5-7.7v-8.9l4.5 4.5-4.5 4.4zm9.3-6l-10-10c-.6-.6-1.6-.8-2.4-.5-.9.4-1.4 1.2-1.4 2.1v7.7h-17.4v-21.6c0-1.2-1-2.2-2.2-2.2h-17.5v4.5h15.2v19.3h-15.6v4.6h15.6v19.3h-15.2v4.5h17.5c1.2 0 2.2-1 2.2-2.2v-21.6h17.4v7.6c0 1 .5 1.8 1.4 2.1.3.2.5.2.8.2.6 0 1.2-.2 1.6-.7l10-9.9c.9-.9.9-2.3 0-3.2zm-63 4.8v-6.4l4.1 3.2-4.1 3.2zm-.8-12.9c-.7-.6-1.7-.7-2.4-.3-.8.4-1.3 1.2-1.3 2v15.9c0 .9.5 1.7 1.3 2.1.3.1.6.2.9.2.6 0 1.1-.2 1.5-.5l9.9-7.9c.5-.5.9-1.1.9-1.8s-.4-1.4-.9-1.8l-9.9-7.9zm.8-10.9v-6.5l4.1 3.2-4.1 3.3zm-.8-13c-.7-.6-1.7-.7-2.4-.3-.8.4-1.3 1.2-1.3 2.1v15.9c0 .9.5 1.6 1.3 2 .3.2.6.3.9.3.6 0 1.1-.2 1.5-.5l9.9-8c.5-.4.9-1.1.9-1.8s-.4-1.3-.9-1.7l-9.9-8zm24.4 77.1c-25.1 0-45.5-20.4-45.5-45.5s20.4-45.5 45.5-45.5 45.5 20.4 45.5 45.5-20.4 45.5-45.5 45.5zm0-95.5c-27.6 0-50 22.4-50 50s22.4 50 50 50 50-22.4 50-50-22.4-50-50-50z" stroke="#000" stroke-opacity="0" fill="#8c4fff"/><use xlink:href="#k" transform="matrix(1,0,0,1,-245.5555555555556,529) translate(10.338541666666671 21.52777777777778)"/><use xlink:href="#l" transform="matrix(1,0,0,1,-245.5555555555556,529) translate(61.11979166666667 21.52777777777778)"/><path d="M655.96 1357.65v-79.2h79.2v79.2h-79.2zm97.65-68.62v-5.23h-13.23v-8c0-1.4-1.16-2.56-2.55-2.56h-8V1260h-5.24v13.24h-10.56V1260h-5.23v13.24h-10.57V1260h-5.35v13.24h-10.56V1260h-5.23v13.24h-10.57V1260h-5.23v13.24h-8c-1.4 0-2.56 1.16-2.56 2.55v8H637.5v5.23h13.24v10.56H637.5v5.22h13.24v10.57l-13.24-.02v5.35h13.24v10.56H637.5v5.22h13.24v10.56H637.5v5.23h13.24v8.02c0 1.4 1.16 2.55 2.55 2.55h8v13.24h5.23v-13.23h10.56v13.24h5.22v-13.23h10.56v13.24h5.35v-13.23h10.56v13.24H714v-13.23h10.56v13.24h5.23v-13.23h8.02c1.4 0 2.55-1.16 2.55-2.55v-8h13.24v-5.24h-13.23v-10.56h13.24v-5.23h-13.23v-10.57h13.24v-5.35h-13.23v-10.56h13.24v-5.23h-13.23v-10.57h13.24z" stroke="#000" stroke-opacity="0" fill="#ed7100"/><use xlink:href="#m" transform="matrix(1,0,0,1,607.5000000000001,1385.111111111111) translate(27.82834201388887 21.52777777777778)"/><path d="M-149.16 928.32v-6.48h6.48v6.48h-6.48zm-18.84 0v-6.48h6.36v6.48H-168zm-21.48 0v-6.48h6.48v6.48h-6.48zm-18.96 0v-6.48h6.24v6.48h-6.24zm16.56-47.76V864.6h32.64v15.96h-32.64zm51.84 35.76h-4.2v-9.12c0-1.56-1.2-2.76-2.64-2.76h-6.84v-9.24c0-1.44-1.2-2.64-2.76-2.64h-16.32v-6.48h16.32c1.56 0 2.76-1.32 2.76-2.76v-21.48c0-1.56-1.2-2.76-2.76-2.76h-38.16c-1.56 0-2.76 1.2-2.76 2.76v21.48c0 1.44 1.2 2.76 2.76 2.76h16.32v6.48h-16.32c-1.56 0-2.76 1.2-2.76 2.64v9.24h-6.84c-1.44 0-2.64 1.2-2.64 2.76v9.12h-4.2c-1.56 0-2.76 1.32-2.76 2.76v12c0 1.44 1.2 2.64 2.76 2.64h11.64c1.56 0 2.76-1.2 2.76-2.64v-12c0-1.44-1.2-2.76-2.76-2.76h-2.04v-6.48h11.28v6.48h-2.04c-1.56 0-2.76 1.32-2.76 2.76v12c0 1.44 1.2 2.64 2.76 2.64h11.88c1.56 0 2.76-1.2 2.76-2.64v-12c0-1.44-1.2-2.76-2.76-2.76h-4.44v-9.12c0-1.56-1.2-2.76-2.64-2.76h-4.44v-6.48h32.64v6.48h-4.44c-1.44 0-2.64 1.2-2.64 2.76v9.12h-4.44c-1.56 0-2.76 1.32-2.76 2.76v12c0 1.44 1.2 2.64 2.76 2.64h11.88c1.56 0 2.76-1.2 2.76-2.64v-12c0-1.44-1.2-2.76-2.76-2.76h-2.04v-6.48h11.28v6.48h-2.28c-1.44 0-2.64 1.32-2.64 2.76v12c0 1.44 1.2 2.64 2.64 2.64h11.88c1.56 0 2.76-1.2 2.76-2.64v-12c0-1.44-1.2-2.76-2.76-2.76zm-35.52 38.28c-30.12 0-54.6-24.48-54.6-54.6s24.48-54.6 54.6-54.6 54.6 24.48 54.6 54.6-24.48 54.6-54.6 54.6zm0-114.6c-33.12 0-60 26.88-60 60 0 33.12 26.88 60 60 60 33.12 0 60-26.88 60-60 0-33.12-26.88-60-60-60z" stroke="#000" stroke-opacity="0" fill="#8c4fff"/><use xlink:href="#n" transform="matrix(1,0,0,1,-265.5555555555556,969.0000000000001) translate(1.876085069444457 21.52777777777778)"/><use xlink:href="#o" transform="matrix(1,0,0,1,-265.5555555555556,969.0000000000001) translate(125.93207465277776 21.52777777777778)"/><use xlink:href="#p" transform="matrix(1,0,0,1,-265.5555555555556,969.0000000000001) translate(43.98763020833333 53.79340277777778)"/><path d="M-709.6 940.77c0-1.18-.96-2.12-2.16-2.12h-29.4c-1.2 0-2.16.94-2.16 2.12v5.3c0 1.2.96 2.14 2.16 2.14h29.4c1.2 0 2.16-.94 2.16-2.12v-5.3zm4.08 10.03c0 .95-.72 1.77-1.68 1.77h-105.6c-.96 0-1.68-.82-1.68-1.77v-14.87c0-.94.72-1.77 1.68-1.77h105.6c.96 0 1.68.83 1.68 1.77v14.87zm-1.68-22.06h-105.6c-3.96 0-7.2 3.3-7.2 7.2v14.86c0 3.9 3.24 7.2 7.2 7.2h105.6c3.96 0 7.2-3.3 7.2-7.2v-14.87c0-3.9-3.24-7.2-7.2-7.2zm-97.68-19.6V855.1h89.76v54.05h-89.76zm91.32-59.58h-93c-2.04 0-3.84 1.77-3.84 3.9v57.22c0 2.13 1.8 3.9 3.84 3.9h93c2.16 0 3.84-1.77 3.84-3.9v-57.23c0-2.12-1.68-3.9-3.84-3.9zm8.04 67.38c0 .94-.72 1.77-1.68 1.77h-105.6c-.96 0-1.68-.82-1.68-1.76V847.2c0-.95.72-1.77 1.68-1.77h105.6c.96 0 1.68.82 1.68 1.77v69.74zM-707.2 840h-105.6c-3.96 0-7.2 3.3-7.2 7.2v69.74c0 4 3.24 7.2 7.2 7.2h105.6c3.96 0 7.2-3.2 7.2-7.2V847.2c0-3.9-3.24-7.2-7.2-7.2z" stroke="#000" stroke-opacity="0" fill="#232f3e"/><use xlink:href="#q" transform="matrix(1,0,0,1,-850,967) translate(59.82421875 21.52777777777778)"/><path d="M-699 899h444.94" stroke="#3a414a" stroke-width="2" fill="none"/><path d="M-698.97 899.98H-700V898h1.03z" stroke="#3a414a" stroke-width=".05" fill="#3a414a"/><path d="M-238.8 899l-14.26 4.63v-9.26z" stroke="#3a414a" stroke-width="2" fill="#3a414a"/><path d="M256.06 899.1l1.07.26 1 .42.94.58.84.7.72.84.57.93.4 1 .26 1.08.1 1.06v406.06l.05.82.2.77.3.74.4.67.52.6.6.52.67.4.72.3.77.2.8.06h352v1.95H266.93l-1.05-.08-1.06-.26-1.02-.43-.93-.57-.83-.7-.7-.84-.58-.94-.42-1-.26-1.07-.08-1.06V906.03l-.07-.83-.18-.75-.3-.73-.4-.67-.53-.6-.6-.5-.67-.43-.73-.3-.76-.18-.83-.06h-369.5V899h369.58z" stroke="#3a414a" stroke-width=".05" fill="#3a414a"/><path d="M-114.53 900.98h-1.06l.04-.98-.04-.98h1.07z" fill="#3a414a"/><path stroke="#3a414a" stroke-width=".05" fill="#3a414a"/><path d="M634.26 1318.06L620 1322.7v-9.28z" fill="#3a414a"/><path d="M637.42 1318.06l-18.4 5.97v-11.95zm-16.45 3.3l10.14-3.3-10.13-3.3z" stroke="#3a414a" stroke-width=".05" fill="#3a414a"/><path d="M655.96 597.65v-79.2h79.2v79.2h-79.2zm97.65-68.62v-5.23h-13.23v-8c0-1.4-1.16-2.56-2.55-2.56h-8V500h-5.24v13.24h-10.56V500h-5.23v13.24h-10.57V500h-5.35v13.24h-10.56V500h-5.23v13.24h-10.57V500h-5.23v13.24h-8c-1.4 0-2.56 1.16-2.56 2.55v8H637.5v5.23h13.24v10.56H637.5v5.22h13.24v10.56H637.5v5.35h13.24v10.56H637.5v5.22h13.24v10.56H637.5v5.23h13.24v8.02c0 1.4 1.16 2.55 2.55 2.55h8v13.24h5.23v-13.23h10.56v13.24h5.22v-13.23h10.56v13.24h5.35v-13.23h10.56v13.24H714v-13.23h10.56v13.24h5.23v-13.23h8.02c1.4 0 2.55-1.16 2.55-2.55v-8h13.24v-5.24h-13.23v-10.56h13.24v-5.23h-13.23v-10.57h13.24v-5.35h-13.23v-10.56h13.24v-5.23h-13.23v-10.57h13.24z" stroke="#000" stroke-opacity="0" fill="#ed7100"/><use xlink:href="#m" transform="matrix(1,0,0,1,607.5000000000001,625.1111111111111) translate(27.82834201388887 21.52777777777778)"/><path d="M619 559.03H267l-.8.07-.78.18-.73.3-.68.4-.6.52-.5.6-.42.68-.3.72-.2.77-.05.82v329.94l-.1 1.05-.24 1.06-.4 1-.58.94-.7.83-.85.72-.93.57-1 .42-1.08.25-1.05.08h-369.56V899h369.5l.82-.06.76-.18.73-.3.67-.42.6-.5.52-.6.4-.68.3-.73.2-.76.06-.84V564.02l.08-1.06.26-1.06.42-1 .57-.95.7-.83.84-.7.93-.58 1.02-.42 1.06-.26 1.05-.08H619z" stroke="#3a414a" stroke-width=".05" fill="#3a414a"/><path d="M-114.53 900.98h-1.06l.04-.98-.04-.98h1.07z" fill="#3a414a"/><path stroke="#3a414a" stroke-width=".05" fill="#3a414a"/><path d="M634.26 558.06L620 562.7v-9.28z" fill="#3a414a"/><path d="M637.42 558.06l-18.4 5.97v-11.95zm-16.45 3.3l10.14-3.3-10.13-3.3z" stroke="#3a414a" stroke-width=".05" fill="#3a414a"/><path d="M1720 840h120v120h-120V840z" stroke="#000" stroke-opacity="0" fill="#e7157b"/><path d="M1802.6 910.14c0-5.92-4.8-10.65-10.76-10.65-5.88 0-10.66 4.72-10.66 10.64 0 5.85 4.78 10.58 10.66 10.58 5.97 0 10.76-4.73 10.76-10.58m3.02 0c0 7.5-6.13 13.58-13.78 13.58-7.56 0-13.7-6.08-13.7-13.58 0-7.57 6.14-13.65 13.7-13.65 7.65 0 13.78 6.07 13.78 13.64m12.68 20.48l-10.58-9.38c-.84 1.2-1.76 2.25-2.86 3.23l10.5 9.44c.84.76 2.27.7 3.03-.13.83-.9.74-2.33-.1-3.15m-26.46-4.2c9.08 0 16.47-7.28 16.47-16.28s-7.38-16.35-16.46-16.35c-8.98 0-16.38 7.34-16.38 16.34s7.4 16.27 16.38 16.27m28.82 9.32c-1 1.12-2.44 1.72-3.87 1.72-1.27 0-2.53-.45-3.45-1.35l-10.92-9.76c-3.1 1.95-6.64 3.07-10.6 3.07-10.65 0-19.4-8.6-19.4-19.26 0-10.73 8.75-19.35 19.4-19.35 10.77 0 19.5 8.62 19.5 19.34 0 3-.75 5.93-2 8.48l11 9.82c2.1 1.88 2.26 5.17.33 7.27m-68.72-51.66c0 .75 0 1.58.1 2.33.07.37-.1.82-.35 1.12-.26.3-.5.44-.85.5-3.7.9-9.83 3.84-9.83 12.47 0 6.52 3.62 10.12 6.64 12 1.1.6 2.27.97 3.6.97l18.16.07v2.94h-18.23c-1.86 0-3.62-.53-5.14-1.43-3.02-1.86-8.06-6.2-8.06-14.53 0-10.06 6.9-13.73 10.92-15.08v-1.36c0-8.17 5.54-16.72 13.02-19.8 8.65-3.6 17.8-1.8 24.53 4.8 2.1 2.03 3.78 4.58 5.12 7.43 1.76-1.43 3.94-2.25 6.2-2.25 4.54 0 9.58 3.37 10.5 10.8 4.2.97 13.1 4.35 13.1 15.52 0 4.5-1.42 8.18-4.2 11.03l-2.1-2.1c2.2-2.25 3.3-5.25 3.3-8.93 0-9.75-8.24-12.22-11.77-12.82-.42 0-.76-.23-1-.6-.26-.3-.35-.75-.26-1.13-.5-6.1-4.12-8.78-7.56-8.78-2.1 0-4.1 1.04-5.54 2.85-.33.44-.84.67-1.42.6-.5-.08-1-.45-1.18-.98-1.26-3.38-3.02-6.3-5.3-8.5-5.8-5.76-13.77-7.26-21.24-4.2-6.3 2.64-11.18 10.07-11.18 17.04" stroke="#000" stroke-opacity="0" fill="#fff"/><use xlink:href="#r" transform="matrix(1,0,0,1,1690,969.0000000000001) translate(47.16145833333334 21.52777777777778)"/><use xlink:href="#s" transform="matrix(1,0,0,1,1690,969.0000000000001) translate(26.089409722222214 53.79340277777778)"/><path d="M1720 1200h120v120h-120v-120z" stroke="#000" stroke-opacity="0" fill="#e7157b"/><path d="M1745.6 1257.04c1.64 0 2.96 1.32 2.96 2.96s-1.32 2.96-2.97 2.96c-1.66 0-3.07-1.32-3.07-2.96s1.4-2.96 3.06-2.96zm35.98 39c-17.5 0-32.6-12.87-35.74-30.03 2.64-.15 4.87-2.02 5.53-4.52h9.24v-2.96h-9.23c-.66-2.5-2.9-4.37-5.53-4.53 3.13-16.93 18.5-30.04 35.74-30.04 6.53 0 13.3 2.5 20.15 7.26l1.73-2.42c-7.43-5.15-14.78-7.8-21.88-7.8-19.07 0-36.08 14.82-38.88 33.77-1.9 1.02-3.14 2.97-3.14 5.23 0 2.26 1.24 4.2 3.14 5.23 2.8 19.26 19.48 33.77 38.88 33.77 8.1 0 16.43-2.73 23.37-7.8l-1.74-2.42c-6.43 4.68-14.1 7.26-21.62 7.26zm-16.34-41.34c2.8.62 6.27.78 8.83.78 2.48 0 5.78-.16 8.5-.7l-6.85 13.57c-.08.15-.16.4-.16.62v6.7c-1.16.8-3.22 2.04-4.46 2.27v-8.97c0-.16-.08-.4-.17-.55l-5.7-13.72zm8.83-5.23c6.03 0 9.25.94 10.32 1.56-1.08.55-4.3 1.48-10.33 1.48s-9.25-.92-10.24-1.47c1-.62 4.2-1.56 10.24-1.56zm-4.46 31.5h1.66c1.82-.22 4.2-1.63 6.2-2.95l.4-.24c.5-.3.75-.78.75-1.24v-7.18l8.35-16.7c.4-.46.66-1 .66-1.63 0-3.98-8.5-4.52-13.53-4.52-5.04 0-13.46.55-13.46 4.53 0 .55.18 1 .43 1.4l7 16.85v10.22c0 .86.76 1.48 1.58 1.48zm43.52-1.47c1.65 0 2.97 1.33 2.97 2.96 0 1.72-1.33 3.05-2.98 3.05s-2.97-1.32-2.97-3.04c0-1.63 1.32-2.96 2.97-2.96zm0-45c1.65 0 2.97 1.32 2.97 3.04 0 1.63-1.33 2.96-2.98 2.96s-2.97-1.33-2.97-2.96c0-1.72 1.32-3.05 2.97-3.05zm2.97 22.54c1.64 0 3.05 1.32 3.05 2.96s-1.4 2.96-3.06 2.96c-1.66 0-2.98-1.32-2.98-2.96s1.32-2.96 2.97-2.96zm-15.03 4.44h9.24c.67 2.58 3 4.53 5.8 4.53 3.3 0 6.02-2.72 6.02-6s-2.72-6-6.03-6c-2.8 0-5.13 1.94-5.8 4.52h-9.23v-19.5h6.27c.66 2.57 2.97 4.44 5.78 4.44 3.3 0 6.03-2.65 6.03-5.92 0-3.36-2.73-6-6.03-6-2.8 0-5.12 1.86-5.78 4.44h-7.76c-.82 0-1.48.7-1.48 1.56v20.98h-10.5v2.96h10.5v20.98c0 .86.66 1.56 1.48 1.56h7.76c.66 2.58 2.97 4.45 5.78 4.45 3.3 0 6.03-2.65 6.03-6 0-3.28-2.73-5.93-6.03-5.93-2.8 0-5.12 1.87-5.78 4.44h-6.27v-19.5z" stroke="#000" stroke-opacity="0" fill="#fff"/><use xlink:href="#t" transform="matrix(1,0,0,1,1690,1329) translate(21.407335069444457 21.52777777777778)"/><use xlink:href="#u" transform="matrix(1,0,0,1,1690,1329) translate(113.33441840277777 21.52777777777778)"/><path d="M696.53 893.96l.07.83.18.75.3.73.4.67.52.6.6.5.68.43.72.3.77.18.82.06h999.9V901H701.52l-1.06-.1-1.06-.24-1-.42-.95-.58-.83-.7-.7-.84-.58-.93-.42-1-.26-1.08-.08-1.06V649.1h1.95zm0-265.85h-1.95v-11h1.95z" stroke="#3a414a" stroke-width=".05" fill="#3a414a"/><path d="M696.53 617.14h-1.95v-1.03h1.95z" fill="#3a414a"/><path stroke="#3a414a" stroke-width=".05" fill="#3a414a"/><path d="M1716.76 900l-14.26 4.63v-9.26z" fill="#3a414a"/><path d="M1719.92 900l-18.4 5.98v-11.96zm-16.45 3.3l10.14-3.3-10.13-3.3zM1701.5 900.98H701.6l-.83.06-.77.18-.72.3-.68.42-.6.5-.5.6-.42.68-.3.73-.18.76-.07.84V1259h-1.95V905.96l.08-1.05.26-1.06.42-1 .57-.94.72-.83.83-.72.94-.57 1-.42 1.06-.25 1.06-.08h999.98z" stroke="#3a414a" stroke-width=".05" fill="#3a414a"/><path d="M696.53 1260h-1.95v-1.03h1.95z" fill="#3a414a"/><path stroke="#3a414a" stroke-width=".05" fill="#3a414a"/><path d="M1716.76 900l-14.26 4.63v-9.26z" fill="#3a414a"/><path d="M1719.92 900l-18.4 5.98v-11.96zm-16.45 3.3l10.14-3.3-10.13-3.3z" stroke="#3a414a" stroke-width=".05" fill="#3a414a"/><path d="M-731.2 478.5l-9.72 9.87v-32h-5.52v31.7l-9.36-9.58-3.84 3.87 14.16 14.5c.48.55 1.2.85 1.92.85s1.44-.3 1.92-.84l14.28-14.44-3.84-3.95zm-33.36-5.7l3.84-3.88-14.28-14.44c-.48-.54-1.2-.84-1.92-.84s-1.44.3-1.92.84l-14.16 14.5 3.84 3.9 9.36-9.66v36.7h5.52v-37l9.72 9.87zm-5.52 27.12l19.32.08v-5.55h-19.32v5.47zm70.08-23.25c0 6.9-2.04 12.4-6.12 16.5-6.72 6.68-16.32 6.83-17.16 6.83h-12.96v-5.55l12.96.08c.12 0 8.16-.08 13.32-5.32 3-2.96 4.56-7.2 4.56-12.53 0-3.2-.96-8.13-8.64-12.85-3.96-2.5-7.68-3.26-9.12-3.57-1.44-.23-2.52-1.52-2.28-3.04-.48-5.7-3.12-9.8-7.44-11.08-3.6-1.07-7.44.22-9.84 3.34-.6.76-1.56 1.22-2.64 1.06-.96-.15-1.8-.83-2.16-1.82-1.68-4.56-4.08-8.44-7.2-11.4-3.84-3.72-14.4-11.7-29.28-5.62-8.52 3.5-15.24 13.52-15.24 22.8 0 1.06 0 2.05.12 3.1.24 1.3-.6 2.6-1.8 2.98-.12 0-.24.07-.36.07-5.04 1.3-13.32 5.1-13.32 16.5 0 8.66 4.92 13.45 9.12 15.95 1.32.84 3 1.3 4.68 1.3l16.68.07v5.47h-16.68c-2.64 0-5.28-.76-7.56-2.12-4.32-2.6-11.64-8.82-11.64-20.68 0-10.18 5.64-18 15.36-21.2 0-.46-.12-1-.12-1.44 0-11.56 8.04-23.56 18.72-27.9 12.36-5.1 25.56-2.58 35.16 6.7 2.76 2.73 5.04 6 6.96 9.8 3.6-2.74 8.28-3.58 12.72-2.2 5.88 1.82 9.96 7.14 11.04 14.43 3 .77 6.24 2.14 9 3.8 7.56 4.65 11.16 10.42 11.16 17.57z" stroke="#000" stroke-opacity="0" fill="#232f3e"/><use xlink:href="#v" transform="matrix(1,0,0,1,-850,509) translate(49.41297743055556 21.52777777777778)"/><path d="M695.56 499.5V476a6 6 0 0 0-6-6H-99.17" stroke="#3a414a" fill="none"/><path d="M696.03 500h-.95v-.5h.95z" stroke="#3a414a" stroke-width=".05" fill="#3a414a"/><path d="M-113.94 470l14.27-4.63v9.26z" stroke="#3a414a" fill="#3a414a"/><path d="M-80.54 469.6l1 .24.93.4.85.52.77.66.66.77.53.86.4.94.24 1 .08.98v934.1l.07.9.2.84.32.8.46.74.56.66.66.56.74.45.8.33.84.2.88.08h759.08l.88-.07.84-.2.8-.34.74-.45.66-.56.56-.66.46-.74.33-.8.2-.85.08-.88v-1h.95v1.03l-.08 1-.24.98-.37.95-.54.87-.66.77-.78.65-.86.53-.94.4-1 .23-1 .1H-69.56l-1-.1-1-.23-.93-.4-.86-.52-.78-.66-.66-.78-.53-.87-.4-.94-.22-.98-.08-1v-934.1l-.07-.88-.2-.85-.33-.8-.46-.75-.55-.66-.66-.57-.75-.45-.8-.33-.84-.2-.87-.07h-17.6v-.96h17.63zm776.57 918.5h-.95v-11.5h.95z" stroke="#3a414a" stroke-width=".05" fill="#3a414a"/><path d="M696.03 1376.62h-.95v-.5h.95z" fill="#3a414a"/><path stroke="#3a414a" stroke-width=".05" fill="#3a414a"/><path d="M-99.67 474.63l-14.27-4.63 14.27-4.63z" fill="#3a414a"/><path d="M-99.2 475.3l-16.27-5.3 16.27-5.3zm-13.2-5.3l12.25 3.98v-7.96z" stroke="#3a414a" stroke-width=".05" fill="#3a414a"/><path d="M-216.06 470h-283.1" stroke="#3a414a" fill="none"/><path d="M-215.56 470l.03.48h-.54v-.96h.53z" stroke="#3a414a" stroke-width=".05" fill="#3a414a"/><path d="M-513.94 470l14.27-4.63v9.26z" stroke="#3a414a" fill="#3a414a"/><path d="M-596.06 480h-87.56" stroke="#3a414a" fill="none"/><path d="M-595.56 480l.03.48h-.54v-.96h.53z" stroke="#3a414a" stroke-width=".05" fill="#3a414a"/><path d="M-698.38 480l14.26-4.63v9.26z" stroke="#3a414a" fill="#3a414a"/><path d="M1780.47 1183.62h-.94v-158.35h.94zm0-211.62h-.94v-11.5h.94z" stroke="#3a414a" stroke-width=".05" fill="#3a414a"/><path d="M1780.47 960.5h-.94v-.5h.94z" fill="#3a414a"/><path stroke="#3a414a" stroke-width=".05" fill="#3a414a"/><path d="M1780 1198.38l-4.63-14.26h9.27z" fill="#3a414a"/><path d="M1780 1199.92l-5.3-16.28h10.6zm-3.98-15.33l3.98 12.25 3.98-12.26z" stroke="#3a414a" stroke-width=".05" fill="#3a414a"/><path d="M1160 500h120v120h-120V500z" stroke="#fff" stroke-opacity="0" stroke-width="2" fill="#3b48cc"/><path d="M1237.53 545.17c0-4.63-9.1-6.8-17.6-6.8-8.5 0-17.6 2.17-17.6 6.8 0 .26.02.43.06.7v28.85c-.08 4.83 9.06 6.86 17.6 6.86 8.57 0 17.6-2.1 17.6-6.74v-29.67zm-17.57-3.6c9.3 0 14.4 2.56 14.4 3.6 0 1.03-5.05 3.58-14.4 3.58-9.38 0-14.4-2.5-14.4-3.58 0-1.04 5.05-3.6 14.4-3.6zm14.4 33.27c0 1.04-5.05 3.55-14.4 3.55-9.35 0-14.4-2.52-14.4-3.55v-5.06c3.36 1.85 9.04 2.7 14.4 2.7 5.36 0 10.97-.85 14.4-2.67zm0-9.1c0 1.03-5.05 3.58-14.4 3.58-9.38 0-14.4-2.55-14.4-3.6h.04v-6.08c3.4 1.8 9.03 2.68 14.4 2.68 5.36 0 10.97-.87 14.4-2.64zm0-10.2c0 1.03-5.05 3.62-14.4 3.62-9.38 0-14.4-2.6-14.4-3.63h.04v-6.22c3.42 1.83 9 2.65 14.4 2.65s11.07-.87 14.4-2.72zM1185.46 596.82H1196v3.2h-14.4c-.88 0-1.6-.72-1.6-1.6V584h3.2v10.5l12-11.98 2.24 2.26zM1260 584.02v14.4c0 .9-.7 1.6-1.6 1.6H1244v-3.2h10.54l-11.82-11.85 2.26-2.25 11.82 11.8v-10.5zM1260 521.62v14.4h-3.2v-10.57l-11.82 11.83-2.26-2.26 11.8-11.8H1244V520h14.4c.9 0 1.6.7 1.6 1.6zM1197.44 535.2l-2.23 2.24-12-12V536h-3.2v-14.4c0-.9.7-1.62 1.6-1.62h14.4v3.2h-10.54zM1195.46 574.34c-9.78-3.5-15.38-8.9-15.38-14.74s5.6-11.2 15.38-14.74l1.08 3c-8.3 3.02-13.27 7.38-13.27 11.74s4.98 8.72 13.27 11.73zM1243.65 574.7l-1.03-3.06c8.88-3 14.18-7.48 14.18-12.04 0-4.56-5.3-9.05-14.18-12.07l1.03-3.02c10.4 3.5 16.35 9.03 16.35 15.1 0 6.06-5.96 11.56-16.35 15.1z" stroke="#fff" stroke-opacity="0" stroke-width="2" fill="#fff"/><use xlink:href="#w" transform="matrix(1,0,0,1,1130,629) translate(21.738281250000014 21.52777777777778)"/><use xlink:href="#x" transform="matrix(1,0,0,1,1130,629) translate(113.66536458333333 21.52777777777778)"/><use xlink:href="#y" transform="matrix(1,0,0,1,1130,629) translate(41.470269097222214 53.79340277777778)"/><path d="M1160 1260h120v120h-120v-120z" stroke="#fff" stroke-opacity="0" stroke-width="2" fill="#3b48cc"/><path d="M1237.53 1305.17c0-4.63-9.1-6.8-17.6-6.8-8.5 0-17.6 2.17-17.6 6.8 0 .26.02.43.06.7v28.85c-.08 4.83 9.06 6.86 17.6 6.86 8.57 0 17.6-2.1 17.6-6.73v-29.68zm-17.57-3.6c9.3 0 14.4 2.56 14.4 3.6 0 1.03-5.05 3.58-14.4 3.58-9.38 0-14.4-2.5-14.4-3.58 0-1.04 5.05-3.6 14.4-3.6zm14.4 33.28c0 1.03-5.05 3.54-14.4 3.54-9.35 0-14.4-2.52-14.4-3.56v-5.05c3.36 1.85 9.04 2.7 14.4 2.7 5.36 0 10.97-.85 14.4-2.67zm0-9.12c0 1.04-5.05 3.6-14.4 3.6-9.38 0-14.4-2.56-14.4-3.6h.04v-6.1c3.4 1.82 9.03 2.7 14.4 2.7 5.36 0 10.97-.88 14.4-2.65zm0-10.2c0 1.04-5.05 3.63-14.4 3.63-9.38 0-14.4-2.6-14.4-3.63h.04v-6.22c3.42 1.83 9 2.65 14.4 2.65s11.07-.87 14.4-2.72zM1185.46 1356.82H1196v3.2h-14.4c-.88 0-1.6-.72-1.6-1.6V1344h3.2v10.5l12-11.98 2.24 2.26zM1260 1344.02v14.4c0 .9-.7 1.6-1.6 1.6H1244v-3.2h10.54l-11.82-11.85 2.26-2.25 11.82 11.8v-10.5zM1260 1281.62v14.4h-3.2v-10.57l-11.82 11.83-2.26-2.26 11.8-11.8H1244v-3.2h14.4c.9 0 1.6.7 1.6 1.6zM1197.44 1295.2l-2.23 2.24-12-12V1296h-3.2v-14.4c0-.9.7-1.62 1.6-1.62h14.4v3.2h-10.54zM1195.46 1334.34c-9.78-3.5-15.38-8.9-15.38-14.74 0-5.83 5.6-11.2 15.38-14.74l1.08 3c-8.3 3.02-13.27 7.38-13.27 11.74s4.98 8.72 13.27 11.73zM1243.65 1334.7l-1.03-3.06c8.88-3 14.18-7.48 14.18-12.04 0-4.56-5.3-9.05-14.18-12.07l1.03-3.02c10.4 3.5 16.35 9.04 16.35 15.1 0 6.07-5.96 11.56-16.35 15.1z" stroke="#fff" stroke-opacity="0" stroke-width="2" fill="#fff"/><use xlink:href="#w" transform="matrix(1,0,0,1,1130,1389) translate(21.738281250000014 21.52777777777778)"/><use xlink:href="#x" transform="matrix(1,0,0,1,1130,1389) translate(113.66536458333333 21.52777777777778)"/><use xlink:href="#z" transform="matrix(1,0,0,1,1130,1389) translate(46.53754340277778 53.79340277777778)"/><path d="M1220.47 1259.5h-.94V689.27h.94zm0-627.5h-.94v-11.5h.94z" stroke="#3a414a" stroke-width=".05" fill="#3a414a"/><path d="M1220.47 620.5h-.94v-.5h.94z" fill="#3a414a"/><path stroke="#3a414a" stroke-width=".05" fill="#3a414a"/><path d="M1220.47 1260h-.94v-.5h.94z" fill="#3a414a"/><path stroke="#3a414a" stroke-width=".05" fill="#3a414a"/><path d="M754.1 558.06h389.52" stroke="#3a414a" fill="none"/><path d="M754.12 558.53h-.5v-.95h.5z" stroke="#3a414a" stroke-width=".05" fill="#3a414a"/><path d="M1158.38 558.06l-14.26 4.63v-9.28z" stroke="#3a414a" fill="#3a414a"/><path d="M1143.62 560.48h-180.8l-.88.06-.84.2-.8.34-.74.45-.66.56-.56.65-.46.74-.33.8-.2.84-.07.88v746.05l-.08 1-.24 1-.38.93-.54.86-.65.78-.8.65-.85.53-.94.38-.98.25-1 .08h-196.7v-.95h196.67l.87-.07.84-.2.8-.32.75-.46.66-.56.57-.66.46-.74.33-.8.2-.84.07-.88V565.98l.08-1 .25-.98.38-.94.54-.87.66-.78.77-.66.87-.53.93-.4 1-.23 1-.08h180.82z" stroke="#3a414a" stroke-width=".05" fill="#3a414a"/><path d="M754.12 1318.53h-.5v-.95h.5z" fill="#3a414a"/><path stroke="#3a414a" stroke-width=".05" fill="#3a414a"/><path d="M1158.38 560l-14.26 4.63v-9.26z" fill="#3a414a"/><path d="M1159.92 560l-16.28 5.3v-10.6zm-15.33 3.98l12.25-3.98-12.26-3.98zM1495.1 559.1l1.06.26 1 .42.94.58.83.7.7.84.6.93.4 1 .26 1.08.07 1.06v337l.07.83.18.75.3.73.42.67.5.6.6.5.68.43.73.3.76.18.84.06h195.46V910h-195.54l-1.05-.1-1.06-.24-1-.42-.94-.58-.83-.7-.7-.84-.6-.93-.4-1-.26-1.08-.07-1.06v-337l-.07-.83-.18-.75-.3-.73-.42-.67-.5-.6-.6-.5-.68-.43-.73-.3-.76-.18-.84-.06H1281V559h213.04z" stroke="#3a414a" stroke-width=".05" fill="#3a414a"/><path d="M1281.03 560.98H1280V559h1.03z" fill="#3a414a"/><path stroke="#3a414a" stroke-width=".05" fill="#3a414a"/><path d="M1716.76 909l-14.26 4.63v-9.26z" fill="#3a414a"/><path d="M1719.92 909l-18.4 5.98v-11.96zm-16.45 3.3l10.14-3.3-10.13-3.3zM1701.5 900.98h-195.46l-.83.06-.75.18-.73.3-.67.42-.6.5-.5.6-.42.68-.3.73-.2.76-.06.84v408l-.08 1.05-.26 1.06-.42 1-.58.94-.7.83-.84.7-.93.6-1 .4-1.08.26-1.06.07H1281v-1.94h212.96l.83-.07.75-.18.73-.3.67-.42.6-.5.5-.6.42-.68.3-.73.2-.76.06-.84v-408l.08-1.05.26-1.06.42-1 .58-.94.7-.83.84-.72.93-.57 1-.42 1.08-.25 1.06-.08h195.54z" stroke="#3a414a" stroke-width=".05" fill="#3a414a"/><path d="M1281.03 1320.97H1280v-1.94h1.03z" fill="#3a414a"/><path stroke="#3a414a" stroke-width=".05" fill="#3a414a"/><path d="M1716.76 900l-14.26 4.63v-9.26z" fill="#3a414a"/><path d="M1719.92 900l-18.4 5.98v-11.96zm-16.45 3.3l10.14-3.3-10.13-3.3z" stroke="#3a414a" stroke-width=".05" fill="#3a414a"/><defs><path d="M628 24c-324 0-524-230-524-574 0-343 198-582 503-582 237 0 487 146 487 559v75H286c9 234 145 362 343 362 132 0 231-58 273-172l174 48C1024-91 857 24 628 24zM287-650h624c-17-190-120-322-304-322-192 0-309 151-320 322" id="A"/><path d="M537 14c-226 0-379-139-379-422v-710h180v695c0 172 97 275 253 275 160 0 281-109 281-300v-670h181V0H879v-209C806-46 684 14 537 14" id="B"/><path d="M798-719v166H144v-166h654" id="C"/><path d="M613 24c-304 0-509-231-509-576 0-350 205-580 509-580 216 0 392 114 453 309l-173 49c-33-115-133-197-280-197-223 0-326 196-326 419 0 220 103 415 326 415 150 0 252-85 285-206l172 49C1010-95 832 24 613 24" id="D"/><path d="M338-670V0H158v-1118h173l1 207c72-158 192-221 342-221 226 0 378 139 378 422V0H872v-695c0-172-96-275-252-275-161 0-282 109-282 300" id="E"/><path d="M598-1118v154H368v674c0 100 37 144 132 144 23 0 62-6 92-12L629-6c-37 13-88 20-134 20-193 0-307-107-307-290v-688H20v-154h168v-266h180v266h230" id="F"/><path d="M158 0v-1118h174v172h12c41-113 157-188 290-188 26 0 70 2 91 3v181c-11-2-60-10-108-10-161 0-279 109-279 260V0H158" id="G"/><path d="M471 26C259 26 90-98 90-318c0-256 228-303 435-329 202-27 287-16 287-108 0-139-79-219-234-219-161 0-248 86-283 164l-173-57c86-203 278-265 451-265 150 0 419 46 419 395V0H815v-152h-12C765-73 660 26 471 26zm31-159c199 0 310-134 310-271v-155c-30 35-226 55-295 64-131 17-246 59-246 186 0 116 97 176 231 176" id="H"/><path d="M338-1490V0H158v-1490h180" id="I"/><path d="M653-1490V0H466v-1314h-10L96-1047v-204l324-239h233" id="J"/><g id="a"><use transform="matrix(0.010850694444444444,0,0,0.010850694444444444,0,0)" xlink:href="#A"/><use transform="matrix(0.010850694444444444,0,0,0.010850694444444444,12.955729166666666,0)" xlink:href="#B"/><use transform="matrix(0.010850694444444444,0,0,0.010850694444444444,25.21701388888889,0)" xlink:href="#C"/><use transform="matrix(0.010850694444444444,0,0,0.010850694444444444,35.43836805555555,0)" xlink:href="#D"/><use transform="matrix(0.010850694444444444,0,0,0.010850694444444444,48.13368055555556,0)" xlink:href="#A"/><use transform="matrix(0.010850694444444444,0,0,0.010850694444444444,61.08940972222221,0)" xlink:href="#E"/><use transform="matrix(0.010850694444444444,0,0,0.010850694444444444,74.21874999999999,0)" xlink:href="#F"/><use transform="matrix(0.010850694444444444,0,0,0.010850694444444444,81.48871527777776,0)" xlink:href="#G"/><use transform="matrix(0.010850694444444444,0,0,0.010850694444444444,89.85460069444441,0)" xlink:href="#H"/><use transform="matrix(0.010850694444444444,0,0,0.010850694444444444,102.33289930555556,0)" xlink:href="#I"/><use transform="matrix(0.010850694444444444,0,0,0.010850694444444444,107.71484374999997,0)" xlink:href="#C"/><use transform="matrix(0.010850694444444444,0,0,0.010850694444444444,117.93619791666666,0)" xlink:href="#J"/></g><path d="M613 24c-304 0-509-231-509-576 0-350 205-580 509-580 305 0 511 230 511 580 0 345-206 576-511 576zm0-161c226 0 329-195 329-415 0-222-103-419-329-419-223 0-326 196-326 419 0 220 103 415 326 415" id="K"/><path d="M409 0L70-1118h191c89 329 165 560 243 925 75-353 154-601 240-925h192c85 325 161 564 235 922 77-354 157-598 244-922h191L1267 0h-179c-86-307-176-590-250-913C763-588 675-308 588 0H409" id="L"/><path d="M677 24c-213 0-288-135-325-197h-20V0H158v-1490h180v551h14c37-59 106-193 324-193 279 0 474 222 474 576 0 356-194 580-473 580zm-27-161c209 0 317-186 317-421 0-232-105-413-317-413-206 0-314 166-314 413 0 249 111 421 314 421" id="M"/><path d="M158 418v-1536h174v179h20c37-59 106-193 324-193 279 0 474 222 474 576 0 356-194 580-473 580-213 0-288-135-325-197h-14v591H158zm492-555c209 0 317-186 317-421 0-232-105-413-317-413-206 0-314 166-314 413 0 249 111 421 314 421" id="N"/><path d="M481 0L54-1118h197c107 314 236 620 325 951 87-331 217-637 324-951h197L670 0H481" id="O"/><g id="b"><use transform="matrix(0.010850694444444444,0,0,0.010850694444444444,0,0)" xlink:href="#A"/><use transform="matrix(0.010850694444444444,0,0,0.010850694444444444,12.955729166666666,0)" xlink:href="#D"/><use transform="matrix(0.010850694444444444,0,0,0.010850694444444444,25.651041666666664,0)" xlink:href="#K"/><use transform="matrix(0.010850694444444444,0,0,0.010850694444444444,38.97569444444444,0)" xlink:href="#C"/><use transform="matrix(0.010850694444444444,0,0,0.010850694444444444,49.19704861111111,0)" xlink:href="#L"/><use transform="matrix(0.010850694444444444,0,0,0.010850694444444444,66.98133680555556,0)" xlink:href="#A"/><use transform="matrix(0.010850694444444444,0,0,0.010850694444444444,79.93706597222223,0)" xlink:href="#M"/><use transform="matrix(0.010850694444444444,0,0,0.010850694444444444,93.76085069444444,0)" xlink:href="#H"/><use transform="matrix(0.010850694444444444,0,0,0.010850694444444444,106.23914930555556,0)" xlink:href="#N"/><use transform="matrix(0.010850694444444444,0,0,0.010850694444444444,119.84592013888889,0)" xlink:href="#N"/><use transform="matrix(0.010850694444444444,0,0,0.010850694444444444,133.45269097222223,0)" xlink:href="#C"/><use transform="matrix(0.010850694444444444,0,0,0.010850694444444444,143.67404513888889,0)" xlink:href="#O"/><use transform="matrix(0.010850694444444444,0,0,0.010850694444444444,156.16319444444443,0)" xlink:href="#N"/><use transform="matrix(0.010850694444444444,0,0,0.010850694444444444,169.76996527777777,0)" xlink:href="#D"/></g><g id="c"><use transform="matrix(0.010850694444444444,0,0,0.010850694444444444,0,0)" xlink:href="#A"/><use transform="matrix(0.010850694444444444,0,0,0.010850694444444444,12.955729166666666,0)" xlink:href="#B"/><use transform="matrix(0.010850694444444444,0,0,0.010850694444444444,25.21701388888889,0)" xlink:href="#C"/><use transform="matrix(0.010850694444444444,0,0,0.010850694444444444,35.43836805555555,0)" xlink:href="#D"/><use transform="matrix(0.010850694444444444,0,0,0.010850694444444444,48.13368055555556,0)" xlink:href="#A"/><use transform="matrix(0.010850694444444444,0,0,0.010850694444444444,61.08940972222221,0)" xlink:href="#E"/><use transform="matrix(0.010850694444444444,0,0,0.010850694444444444,74.21874999999999,0)" xlink:href="#F"/><use transform="matrix(0.010850694444444444,0,0,0.010850694444444444,81.48871527777776,0)" xlink:href="#G"/><use transform="matrix(0.010850694444444444,0,0,0.010850694444444444,89.85460069444441,0)" xlink:href="#H"/><use transform="matrix(0.010850694444444444,0,0,0.010850694444444444,102.33289930555556,0)" xlink:href="#I"/><use transform="matrix(0.010850694444444444,0,0,0.010850694444444444,107.71484374999997,0)" xlink:href="#C"/><use transform="matrix(0.010850694444444444,0,0,0.010850694444444444,117.93619791666666,0)" xlink:href="#J"/><use transform="matrix(0.010850694444444444,0,0,0.010850694444444444,126.97482638888889,0)" xlink:href="#H"/></g><path d="M180 0v-1490h510c348 0 508 209 508 474 0 266-160 477-507 477H370V0H180zm190-706h312c236 0 327-133 327-310 0-176-91-307-329-307H370v617" id="P"/><path d="M158 0v-1118h180V0H158zm91-1301c-68 0-125-53-125-119s57-119 125-119c69 0 126 53 126 119s-57 119-126 119" id="Q"/><g id="d"><use transform="matrix(0.010850694444444444,0,0,0.010850694444444444,0,0)" xlink:href="#P"/><use transform="matrix(0.010850694444444444,0,0,0.010850694444444444,14.192708333333332,0)" xlink:href="#G"/><use transform="matrix(0.010850694444444444,0,0,0.010850694444444444,22.90581597222222,0)" xlink:href="#Q"/><use transform="matrix(0.010850694444444444,0,0,0.010850694444444444,28.287760416666664,0)" xlink:href="#O"/><use transform="matrix(0.010850694444444444,0,0,0.010850694444444444,40.66840277777778,0)" xlink:href="#H"/><use transform="matrix(0.010850694444444444,0,0,0.010850694444444444,53.146701388888886,0)" xlink:href="#F"/><use transform="matrix(0.010850694444444444,0,0,0.010850694444444444,60.19965277777778,0)" xlink:href="#A"/></g><path d="M538 24C308 24 148-78 108-271l171-41c32 123 123 178 257 178 156 0 256-77 256-169 0-77-54-128-164-154l-186-44c-203-48-300-148-300-305 0-192 176-326 414-326 230 0 351 112 402 269l-163 42c-31-80-94-158-238-158-133 0-233 69-233 162 0 83 57 129 188 160l169 40c203 48 298 149 298 302 0 196-179 339-441 339" id="R"/><g id="e"><use transform="matrix(0.010850694444444444,0,0,0.010850694444444444,0,0)" xlink:href="#R"/><use transform="matrix(0.010850694444444444,0,0,0.010850694444444444,11.729600694444445,0)" xlink:href="#B"/><use transform="matrix(0.010850694444444444,0,0,0.010850694444444444,24.869791666666664,0)" xlink:href="#M"/><use transform="matrix(0.010850694444444444,0,0,0.010850694444444444,38.4765625,0)" xlink:href="#E"/><use transform="matrix(0.010850694444444444,0,0,0.010850694444444444,51.60590277777778,0)" xlink:href="#A"/><use transform="matrix(0.010850694444444444,0,0,0.010850694444444444,64.56163194444444,0)" xlink:href="#F"/></g><g id="f"><use transform="matrix(0.010850694444444444,0,0,0.010850694444444444,0,0)" xlink:href="#P"/><use transform="matrix(0.010850694444444444,0,0,0.010850694444444444,14.192708333333332,0)" xlink:href="#B"/><use transform="matrix(0.010850694444444444,0,0,0.010850694444444444,27.332899305555554,0)" xlink:href="#M"/><use transform="matrix(0.010850694444444444,0,0,0.010850694444444444,40.939670138888886,0)" xlink:href="#I"/><use transform="matrix(0.010850694444444444,0,0,0.010850694444444444,46.32161458333333,0)" xlink:href="#Q"/><use transform="matrix(0.010850694444444444,0,0,0.010850694444444444,51.70355902777778,0)" xlink:href="#D"/></g><g id="g"><use transform="matrix(0.010850694444444444,0,0,0.010850694444444444,0,0)" xlink:href="#A"/><use transform="matrix(0.010850694444444444,0,0,0.010850694444444444,12.955729166666666,0)" xlink:href="#B"/><use transform="matrix(0.010850694444444444,0,0,0.010850694444444444,25.21701388888889,0)" xlink:href="#C"/><use transform="matrix(0.010850694444444444,0,0,0.010850694444444444,35.43836805555555,0)" xlink:href="#D"/><use transform="matrix(0.010850694444444444,0,0,0.010850694444444444,48.13368055555556,0)" xlink:href="#A"/><use transform="matrix(0.010850694444444444,0,0,0.010850694444444444,61.08940972222221,0)" xlink:href="#E"/><use transform="matrix(0.010850694444444444,0,0,0.010850694444444444,74.21874999999999,0)" xlink:href="#F"/><use transform="matrix(0.010850694444444444,0,0,0.010850694444444444,81.48871527777776,0)" xlink:href="#G"/><use transform="matrix(0.010850694444444444,0,0,0.010850694444444444,89.85460069444441,0)" xlink:href="#H"/><use transform="matrix(0.010850694444444444,0,0,0.010850694444444444,102.33289930555556,0)" xlink:href="#I"/><use transform="matrix(0.010850694444444444,0,0,0.010850694444444444,107.71484374999997,0)" xlink:href="#C"/><use transform="matrix(0.010850694444444444,0,0,0.010850694444444444,117.93619791666666,0)" xlink:href="#J"/><use transform="matrix(0.010850694444444444,0,0,0.010850694444444444,126.97482638888889,0)" xlink:href="#M"/></g><path d="M52 0l541-1490h220L1361 0h-200l-149-416H398L254 0H52zm404-582h497c-103-290-145-390-251-756-108 377-145 460-246 756" id="S"/><g id="h"><use transform="matrix(0.010850694444444444,0,0,0.010850694444444444,0,0)" xlink:href="#S"/><use transform="matrix(0.010850694444444444,0,0,0.010850694444444444,15.33203125,0)" xlink:href="#B"/><use transform="matrix(0.010850694444444444,0,0,0.010850694444444444,28.47222222222222,0)" xlink:href="#F"/><use transform="matrix(0.010850694444444444,0,0,0.010850694444444444,35.52517361111111,0)" xlink:href="#K"/></g><path d="M657 26c-323 0-524-166-541-416h195c15 169 171 246 346 246 202 0 356-106 356-265 5-203-294-238-475-293-239-73-380-191-380-389 0-252 224-419 512-419 294 0 499 171 508 396H992c-17-145-151-228-328-228-193 0-321 102-321 242 0 156 175 211 284 241l149 41c160 44 422 134 422 412 0 244-197 432-541 432" id="T"/><path d="M611 442c-248 0-391-105-460-228l146-94c47 65 117 165 314 165 178 0 307-82 307-266v-224h-17C863-141 792-18 576-18c-268 0-472-195-472-546 0-346 197-568 476-568 216 0 288 133 326 193h17v-179h175V29c0 289-215 413-487 413zm-5-620c203 0 314-146 314-390 0-237-108-403-314-403-213 0-319 180-319 403 0 230 109 390 319 390" id="U"/><g id="i"><use transform="matrix(0.010850694444444444,0,0,0.010850694444444444,0,0)" xlink:href="#T"/><use transform="matrix(0.010850694444444444,0,0,0.010850694444444444,14.2578125,0)" xlink:href="#D"/><use transform="matrix(0.010850694444444444,0,0,0.010850694444444444,27.17013888888889,0)" xlink:href="#H"/><use transform="matrix(0.010850694444444444,0,0,0.010850694444444444,39.6484375,0)" xlink:href="#I"/><use transform="matrix(0.010850694444444444,0,0,0.010850694444444444,45.03038194444444,0)" xlink:href="#Q"/><use transform="matrix(0.010850694444444444,0,0,0.010850694444444444,50.412326388888886,0)" xlink:href="#E"/><use transform="matrix(0.010850694444444444,0,0,0.010850694444444444,63.541666666666664,0)" xlink:href="#U"/></g><g id="j"><use transform="matrix(0.010850694444444444,0,0,0.010850694444444444,0,0)" xlink:href="#U"/><use transform="matrix(0.010850694444444444,0,0,0.010850694444444444,13.628472222222221,0)" xlink:href="#G"/><use transform="matrix(0.010850694444444444,0,0,0.010850694444444444,21.62543402777778,0)" xlink:href="#K"/><use transform="matrix(0.010850694444444444,0,0,0.010850694444444444,34.95008680555556,0)" xlink:href="#B"/><use transform="matrix(0.010850694444444444,0,0,0.010850694444444444,48.09027777777778,0)" xlink:href="#N"/></g><path d="M180 0v-1490h224l606 953c40 63 108 177 176 312-27-437-7-821-13-1265h190V0h-226C860-448 622-778 356-1262c27 476 11 792 15 1262H180" id="V"/><path d="M98-1322v-168h1126v168H757V0H567v-1322H98" id="W"/><g id="k"><use transform="matrix(0.010850694444444444,0,0,0.010850694444444444,0,0)" xlink:href="#V"/><use transform="matrix(0.010850694444444444,0,0,0.010850694444444444,16.74262152777778,0)" xlink:href="#S"/><use transform="matrix(0.010850694444444444,0,0,0.010850694444444444,30.186631944444443,0)" xlink:href="#W"/></g><path d="M140 405l46-156c120 36 205 19 263-150l32-93L54-1118h197c107 313 237 620 324 950 87-331 219-637 326-950h196L606 167c-68 178-176 259-334 259-64 0-113-12-132-21" id="X"/><g id="l"><use transform="matrix(0.010850694444444444,0,0,0.010850694444444444,0,0)" xlink:href="#U"/><use transform="matrix(0.010850694444444444,0,0,0.010850694444444444,13.628472222222221,0)" xlink:href="#H"/><use transform="matrix(0.010850694444444444,0,0,0.010850694444444444,26.106770833333332,0)" xlink:href="#F"/><use transform="matrix(0.010850694444444444,0,0,0.010850694444444444,33.15972222222222,0)" xlink:href="#A"/><use transform="matrix(0.010850694444444444,0,0,0.010850694444444444,45.71397569444444,0)" xlink:href="#L"/><use transform="matrix(0.010850694444444444,0,0,0.010850694444444444,63.89973958333333,0)" xlink:href="#H"/><use transform="matrix(0.010850694444444444,0,0,0.010850694444444444,76.0525173611111,0)" xlink:href="#X"/></g><g id="m"><use transform="matrix(0.010850694444444444,0,0,0.010850694444444444,0,0)" xlink:href="#L"/><use transform="matrix(0.010850694444444444,0,0,0.010850694444444444,17.784288194444446,0)" xlink:href="#A"/><use transform="matrix(0.010850694444444444,0,0,0.010850694444444444,30.740017361111114,0)" xlink:href="#M"/><use transform="matrix(0.010850694444444444,0,0,0.010850694444444444,44.34678819444444,0)" xlink:href="#C"/><use transform="matrix(0.010850694444444444,0,0,0.010850694444444444,54.56814236111111,0)" xlink:href="#R"/><use transform="matrix(0.010850694444444444,0,0,0.010850694444444444,66.29774305555556,0)" xlink:href="#A"/><use transform="matrix(0.010850694444444444,0,0,0.010850694444444444,79.25347222222223,0)" xlink:href="#G"/><use transform="matrix(0.010850694444444444,0,0,0.010850694444444444,87.96657986111113,0)" xlink:href="#O"/><use transform="matrix(0.010850694444444444,0,0,0.010850694444444444,100.0217013888889,0)" xlink:href="#A"/><use transform="matrix(0.010850694444444444,0,0,0.010850694444444444,112.97743055555559,0)" xlink:href="#G"/></g><g id="n"><use transform="matrix(0.010850694444444444,0,0,0.010850694444444444,0,0)" xlink:href="#S"/><use transform="matrix(0.010850694444444444,0,0,0.010850694444444444,15.33203125,0)" xlink:href="#N"/><use transform="matrix(0.010850694444444444,0,0,0.010850694444444444,28.938802083333332,0)" xlink:href="#N"/><use transform="matrix(0.010850694444444444,0,0,0.010850694444444444,42.545572916666664,0)" xlink:href="#I"/><use transform="matrix(0.010850694444444444,0,0,0.010850694444444444,47.92751736111111,0)" xlink:href="#Q"/><use transform="matrix(0.010850694444444444,0,0,0.010850694444444444,53.30946180555556,0)" xlink:href="#D"/><use transform="matrix(0.010850694444444444,0,0,0.010850694444444444,66.22178819444443,0)" xlink:href="#H"/><use transform="matrix(0.010850694444444444,0,0,0.010850694444444444,78.70008680555554,0)" xlink:href="#F"/><use transform="matrix(0.010850694444444444,0,0,0.010850694444444444,85.97005208333331,0)" xlink:href="#Q"/><use transform="matrix(0.010850694444444444,0,0,0.010850694444444444,91.35199652777776,0)" xlink:href="#K"/><use transform="matrix(0.010850694444444444,0,0,0.010850694444444444,104.67664930555553,0)" xlink:href="#E"/></g><path d="M180 0v-1490h190v1322h690V0H180" id="Y"/><path d="M577 24c-279 0-473-224-473-580 0-354 195-576 474-576 218 0 287 134 324 193h14v-551h180V0H922v-173h-20C865-111 790 24 577 24zm27-161c203 0 314-172 314-421 0-247-108-413-314-413-212 0-317 181-317 413 0 235 108 421 317 421" id="Z"/><g id="o"><use transform="matrix(0.010850694444444444,0,0,0.010850694444444444,0,0)" xlink:href="#Y"/><use transform="matrix(0.010850694444444444,0,0,0.010850694444444444,12.565104166666666,0)" xlink:href="#K"/><use transform="matrix(0.010850694444444444,0,0,0.010850694444444444,26.106770833333332,0)" xlink:href="#H"/><use transform="matrix(0.010850694444444444,0,0,0.010850694444444444,38.58506944444444,0)" xlink:href="#Z"/></g><path d="M180 0v-1490h528c311 0 458 177 458 395 0 191-114 278-244 313v14c139 9 302 137 302 371 0 225-148 397-499 397H180zm190-168h350c232 0 321-102 321-231 0-149-120-277-311-277H370v508zm0-668h328c160 0 286-101 286-255 0-129-87-231-280-231H370v486" id="aa"/><g id="p"><use transform="matrix(0.010850694444444444,0,0,0.010850694444444444,0,0)" xlink:href="#aa"/><use transform="matrix(0.010850694444444444,0,0,0.010850694444444444,14.539930555555555,0)" xlink:href="#H"/><use transform="matrix(0.010850694444444444,0,0,0.010850694444444444,27.018229166666664,0)" xlink:href="#I"/><use transform="matrix(0.010850694444444444,0,0,0.010850694444444444,32.40017361111111,0)" xlink:href="#H"/><use transform="matrix(0.010850694444444444,0,0,0.010850694444444444,44.87847222222221,0)" xlink:href="#E"/><use transform="matrix(0.010850694444444444,0,0,0.010850694444444444,58.007812499999986,0)" xlink:href="#D"/><use transform="matrix(0.010850694444444444,0,0,0.010850694444444444,70.703125,0)" xlink:href="#A"/><use transform="matrix(0.010850694444444444,0,0,0.010850694444444444,83.65885416666667,0)" xlink:href="#G"/></g><path d="M783 20c-382 0-661-292-661-764 0-473 279-766 661-766 302 0 548 182 601 489h-190c-42-204-217-313-411-313-268 0-476 208-476 590 0 381 209 588 476 588 195 0 369-110 411-313h190c-52 303-296 489-601 489" id="ab"/><g id="q"><use transform="matrix(0.010850694444444444,0,0,0.010850694444444444,0,0)" xlink:href="#ab"/><use transform="matrix(0.010850694444444444,0,0,0.010850694444444444,16.23263888888889,0)" xlink:href="#I"/><use transform="matrix(0.010850694444444444,0,0,0.010850694444444444,21.614583333333336,0)" xlink:href="#Q"/><use transform="matrix(0.010850694444444444,0,0,0.010850694444444444,26.99652777777778,0)" xlink:href="#A"/><use transform="matrix(0.010850694444444444,0,0,0.010850694444444444,39.95225694444444,0)" xlink:href="#E"/><use transform="matrix(0.010850694444444444,0,0,0.010850694444444444,53.08159722222222,0)" xlink:href="#F"/></g><path d="M158 0v-1118h175l1 205c55-151 181-225 313-225 147 0 245 90 285 228 53-141 190-228 352-228 194 0 352 125 352 384V0h-181v-749c0-161-105-225-225-225-151 0-243 103-243 244V0H807v-767c0-124-93-207-219-207-131 0-250 92-250 270V0H158" id="ac"/><path d="M126 0v-134l627-806v-11H146v-167h839v143L376-178v11h629V0H126" id="ad"/><g id="r"><use transform="matrix(0.010850694444444444,0,0,0.010850694444444444,0,0)" xlink:href="#S"/><use transform="matrix(0.010850694444444444,0,0,0.010850694444444444,15.33203125,0)" xlink:href="#ac"/><use transform="matrix(0.010850694444444444,0,0,0.010850694444444444,34.79817708333333,0)" xlink:href="#H"/><use transform="matrix(0.010850694444444444,0,0,0.010850694444444444,47.27647569444444,0)" xlink:href="#ad"/><use transform="matrix(0.010850694444444444,0,0,0.010850694444444444,59.22309027777778,0)" xlink:href="#K"/><use transform="matrix(0.010850694444444444,0,0,0.010850694444444444,72.54774305555554,0)" xlink:href="#E"/></g><path d="M458 0L52-1490h194c108 439 233 855 324 1313 92-459 221-873 331-1313h216c110 438 234 854 330 1307 92-455 216-869 323-1307h196L1558 0h-221l-256-944c-26-95-50-200-73-331-22 122-44 223-73 331L680 0H458" id="ae"/><path d="M338-670V0H158v-1490h180v566c73-149 190-208 336-208 226 0 379 139 379 422V0H872v-695c0-172-96-275-252-275-161 0-282 109-282 300" id="af"/><g id="s"><use transform="matrix(0.010850694444444444,0,0,0.010850694444444444,0,0)" xlink:href="#ab"/><use transform="matrix(0.010850694444444444,0,0,0.010850694444444444,16.23263888888889,0)" xlink:href="#I"/><use transform="matrix(0.010850694444444444,0,0,0.010850694444444444,21.614583333333336,0)" xlink:href="#K"/><use transform="matrix(0.010850694444444444,0,0,0.010850694444444444,34.939236111111114,0)" xlink:href="#B"/><use transform="matrix(0.010850694444444444,0,0,0.010850694444444444,48.07942708333333,0)" xlink:href="#Z"/><use transform="matrix(0.010850694444444444,0,0,0.010850694444444444,61.68619791666667,0)" xlink:href="#ae"/><use transform="matrix(0.010850694444444444,0,0,0.010850694444444444,82.45442708333334,0)" xlink:href="#H"/><use transform="matrix(0.010850694444444444,0,0,0.010850694444444444,94.93272569444446,0)" xlink:href="#F"/><use transform="matrix(0.010850694444444444,0,0,0.010850694444444444,101.98567708333334,0)" xlink:href="#D"/><use transform="matrix(0.010850694444444444,0,0,0.010850694444444444,114.68098958333334,0)" xlink:href="#af"/></g><g id="t"><use transform="matrix(0.010850694444444444,0,0,0.010850694444444444,0,0)" xlink:href="#S"/><use transform="matrix(0.010850694444444444,0,0,0.010850694444444444,15.33203125,0)" xlink:href="#ac"/><use transform="matrix(0.010850694444444444,0,0,0.010850694444444444,34.79817708333333,0)" xlink:href="#H"/><use transform="matrix(0.010850694444444444,0,0,0.010850694444444444,47.27647569444444,0)" xlink:href="#ad"/><use transform="matrix(0.010850694444444444,0,0,0.010850694444444444,59.22309027777778,0)" xlink:href="#K"/><use transform="matrix(0.010850694444444444,0,0,0.010850694444444444,72.54774305555554,0)" xlink:href="#E"/></g><g id="u"><use transform="matrix(0.010850694444444444,0,0,0.010850694444444444,0,0)" xlink:href="#T"/><use transform="matrix(0.010850694444444444,0,0,0.010850694444444444,14.2578125,0)" xlink:href="#V"/><use transform="matrix(0.010850694444444444,0,0,0.010850694444444444,31.000434027777775,0)" xlink:href="#T"/></g><path d="M370-1490V0H180v-1490h190" id="ag"/><g id="v"><use transform="matrix(0.010850694444444444,0,0,0.010850694444444444,0,0)" xlink:href="#ag"/><use transform="matrix(0.010850694444444444,0,0,0.010850694444444444,5.967881944444445,0)" xlink:href="#E"/><use transform="matrix(0.010850694444444444,0,0,0.010850694444444444,19.09722222222222,0)" xlink:href="#F"/><use transform="matrix(0.010850694444444444,0,0,0.010850694444444444,26.15017361111111,0)" xlink:href="#A"/><use transform="matrix(0.010850694444444444,0,0,0.010850694444444444,39.10590277777778,0)" xlink:href="#G"/><use transform="matrix(0.010850694444444444,0,0,0.010850694444444444,47.819010416666664,0)" xlink:href="#E"/><use transform="matrix(0.010850694444444444,0,0,0.010850694444444444,60.94835069444444,0)" xlink:href="#A"/><use transform="matrix(0.010850694444444444,0,0,0.010850694444444444,73.90407986111111,0)" xlink:href="#F"/></g><g id="w"><use transform="matrix(0.010850694444444444,0,0,0.010850694444444444,0,0)" xlink:href="#S"/><use transform="matrix(0.010850694444444444,0,0,0.010850694444444444,15.33203125,0)" xlink:href="#ac"/><use transform="matrix(0.010850694444444444,0,0,0.010850694444444444,34.79817708333333,0)" xlink:href="#H"/><use transform="matrix(0.010850694444444444,0,0,0.010850694444444444,47.27647569444444,0)" xlink:href="#ad"/><use transform="matrix(0.010850694444444444,0,0,0.010850694444444444,59.22309027777778,0)" xlink:href="#K"/><use transform="matrix(0.010850694444444444,0,0,0.010850694444444444,72.54774305555554,0)" xlink:href="#E"/></g><path d="M180 0v-1490h510c348 0 508 194 508 460 0 198-88 351-276 417L1256 0h-220L726-579c-117 2-238 0-356 1V0H180zm190-747h312c235 0 327-108 327-283 0-177-92-293-329-293H370v576" id="ah"/><path d="M645 0H180v-1490h484c435 0 692 280 692 742 0 466-257 748-711 748zM370-168h263c363 0 539-218 539-580 0-358-176-574-521-574H370v1154" id="ai"/><g id="x"><use transform="matrix(0.010850694444444444,0,0,0.010850694444444444,0,0)" xlink:href="#ah"/><use transform="matrix(0.010850694444444444,0,0,0.010850694444444444,14.301215277777777,0)" xlink:href="#ai"/><use transform="matrix(0.010850694444444444,0,0,0.010850694444444444,30.338541666666664,0)" xlink:href="#T"/></g><path d="M218-607c0-325 108-727 258-974h175c-155 315-250 682-250 974 0 265 78 531 250 886H476C306-10 218-315 218-607" id="aj"/><path d="M96 279C273-86 346-350 346-607c0-292-95-659-250-974h175c150 246 258 650 258 974 0 297-91 602-258 886H96" id="ak"/><g id="y"><use transform="matrix(0.010850694444444444,0,0,0.010850694444444444,0,0)" xlink:href="#aj"/><use transform="matrix(0.010850694444444444,0,0,0.010850694444444444,8.10546875,0)" xlink:href="#N"/><use transform="matrix(0.010850694444444444,0,0,0.010850694444444444,21.712239583333332,0)" xlink:href="#G"/><use transform="matrix(0.010850694444444444,0,0,0.010850694444444444,30.42534722222222,0)" xlink:href="#Q"/><use transform="matrix(0.010850694444444444,0,0,0.010850694444444444,35.807291666666664,0)" xlink:href="#ac"/><use transform="matrix(0.010850694444444444,0,0,0.010850694444444444,55.2734375,0)" xlink:href="#H"/><use transform="matrix(0.010850694444444444,0,0,0.010850694444444444,67.75173611111111,0)" xlink:href="#G"/><use transform="matrix(0.010850694444444444,0,0,0.010850694444444444,76.46484375000001,0)" xlink:href="#X"/><use transform="matrix(0.010850694444444444,0,0,0.010850694444444444,88.95399305555557,0)" xlink:href="#ak"/></g><g id="z"><use transform="matrix(0.010850694444444444,0,0,0.010850694444444444,0,0)" xlink:href="#aj"/><use transform="matrix(0.010850694444444444,0,0,0.010850694444444444,8.10546875,0)" xlink:href="#G"/><use transform="matrix(0.010850694444444444,0,0,0.010850694444444444,16.102430555555557,0)" xlink:href="#A"/><use transform="matrix(0.010850694444444444,0,0,0.010850694444444444,29.05815972222222,0)" xlink:href="#N"/><use transform="matrix(0.010850694444444444,0,0,0.010850694444444444,42.66493055555556,0)" xlink:href="#I"/><use transform="matrix(0.010850694444444444,0,0,0.010850694444444444,48.046875,0)" xlink:href="#Q"/><use transform="matrix(0.010850694444444444,0,0,0.010850694444444444,53.42881944444444,0)" xlink:href="#D"/><use transform="matrix(0.010850694444444444,0,0,0.010850694444444444,66.34114583333333,0)" xlink:href="#H"/><use transform="matrix(0.010850694444444444,0,0,0.010850694444444444,78.81944444444444,0)" xlink:href="#ak"/></g></defs></g></svg>